<?xml version="1.0" encoding="UTF-8" standalone="no"?>
<!-- Created with Inkscape (http://www.inkscape.org/) -->
<svg
   xmlns:dc="http://purl.org/dc/elements/1.1/"
   xmlns:cc="http://creativecommons.org/ns#"
   xmlns:rdf="http://www.w3.org/1999/02/22-rdf-syntax-ns#"
   xmlns:svg="http://www.w3.org/2000/svg"
   xmlns="http://www.w3.org/2000/svg"
   xmlns:sodipodi="http://sodipodi.sourceforge.net/DTD/sodipodi-0.dtd"
   xmlns:inkscape="http://www.inkscape.org/namespaces/inkscape"
   width="744.09448819"
   height="1052.3622047"
   id="svg2392"
   sodipodi:version="0.32"
   inkscape:version="0.46"
   sodipodi:docname="icons.svg"
   inkscape:output_extension="org.inkscape.output.svg.inkscape">
  <defs
     id="defs2394">
    <inkscape:perspective
       sodipodi:type="inkscape:persp3d"
       inkscape:vp_x="0 : 526.18109 : 1"
       inkscape:vp_y="-252.06936 : 967.70917 : 0"
       inkscape:vp_z="744.09448 : 526.18109 : 1"
       inkscape:persp3d-origin="372.04724 : 350.78739 : 1"
       id="perspective2400" />
    <filter
       inkscape:collect="always"
       id="filter6724">
      <feGaussianBlur
         inkscape:collect="always"
         stdDeviation="6.9628893"
         id="feGaussianBlur6726" />
    </filter>
  </defs>
  <sodipodi:namedview
     id="base"
     pagecolor="#ff65ff"
     bordercolor="#666666"
     borderopacity="1.0"
     inkscape:pageopacity="0"
     inkscape:pageshadow="2"
     inkscape:zoom="0.90296248"
     inkscape:cx="263.49414"
     inkscape:cy="716.68089"
     inkscape:document-units="px"
     inkscape:current-layer="layer1"
     showgrid="false"
     showguides="true"
     inkscape:guide-bbox="true"
     inkscape:window-width="1280"
     inkscape:window-height="738"
     inkscape:window-x="1016"
     inkscape:window-y="100" />
  <metadata
     id="metadata2397">
    <rdf:RDF>
      <cc:Work
         rdf:about="">
        <dc:format>image/svg+xml</dc:format>
        <dc:type
           rdf:resource="http://purl.org/dc/dcmitype/StillImage" />
      </cc:Work>
    </rdf:RDF>
  </metadata>
  <g
     inkscape:label="Livello 1"
     inkscape:groupmode="layer"
     id="layer1">
    <rect
       style="opacity:1;fill:#ffffff;fill-opacity:0;stroke:none;stroke-width:1.47268188;stroke-linejoin:round;stroke-miterlimit:4;stroke-dasharray:none;stroke-opacity:1"
       id="rect6660"
       width="238.78485"
       height="236.68102"
       x="34.10817"
       y="32.719906"
       rx="27.980957"
       ry="27.980957"
       inkscape:export-filename="D:\Documenti\Workspaces\ProgettiNetBeans\MessengerSRC\Grafica\themeIcon.png"
       inkscape:export-xdpi="10.352058"
       inkscape:export-ydpi="10.352058" />
    <rect
       style="opacity:1;fill:#ffffff;fill-opacity:1;stroke:#6e6e6e;stroke-width:9;stroke-linejoin:round;stroke-miterlimit:4;stroke-dasharray:none;stroke-opacity:1"
       id="rect6728"
       width="234.42986"
       height="234.42986"
       x="36.90181"
       y="28.672073"
       rx="27.470636"
       ry="27.714821"
       inkscape:export-filename="D:\Documenti\Workspaces\ProgettiNetBeans\MessengerSRC\Grafica\themeIcon.png"
       inkscape:export-xdpi="10.352058"
       inkscape:export-ydpi="10.352058" />
    <path
       sodipodi:type="arc"
       style="opacity:1;fill:#0000ff;fill-opacity:1;stroke:#000000;stroke-width:0.98695153;stroke-linejoin:round;stroke-miterlimit:4;stroke-dasharray:none;stroke-opacity:0"
       id="path6696"
       sodipodi:cx="206.34593"
       sodipodi:cy="547.26495"
       sodipodi:rx="25.450638"
       sodipodi:ry="32.106956"
       d="M 206.34614,515.158 A 25.450638,32.106956 0 0 1 231.79657,547.26495 L 206.34593,547.26495 z"
       sodipodi:start="4.712397"
       sodipodi:end="6.2831853"
       transform="matrix(3.7439664,0,0,2.9681286,-617.86364,-1478.244)"
       inkscape:export-filename="D:\Documenti\Workspaces\ProgettiNetBeans\MessengerSRC\Grafica\themeIcon.png"
       inkscape:export-xdpi="10.352058"
       inkscape:export-ydpi="10.352058" />
    <path
       sodipodi:type="arc"
       style="opacity:1;fill:#ffff00;fill-opacity:1;stroke:#000000;stroke-width:0.98769182;stroke-linejoin:round;stroke-miterlimit:4;stroke-dasharray:none;stroke-opacity:0"
       id="path6700"
       sodipodi:cx="206.34593"
       sodipodi:cy="547.26495"
       sodipodi:rx="25.450638"
       sodipodi:ry="32.106956"
       d="M 206.34614,515.158 A 25.450638,32.106956 0 0 1 231.79657,547.26495 L 206.34593,547.26495 z"
       sodipodi:start="4.712397"
       sodipodi:end="6.2831853"
       transform="matrix(5.7214738e-3,3.7387939,-2.9677748,4.474121e-3,1777.5624,-627.56698)"
       inkscape:export-filename="D:\Documenti\Workspaces\ProgettiNetBeans\MessengerSRC\Grafica\themeIcon.png"
       inkscape:export-xdpi="10.352058"
       inkscape:export-ydpi="10.352058" />
    <path
       sodipodi:type="arc"
       style="opacity:1;fill:#ff0000;fill-opacity:1;stroke:#000000;stroke-width:0.98997009;stroke-linejoin:round;stroke-miterlimit:4;stroke-dasharray:none;stroke-opacity:0"
       id="path6702"
       sodipodi:cx="206.34593"
       sodipodi:cy="547.26495"
       sodipodi:rx="25.450638"
       sodipodi:ry="32.106956"
       d="M 206.34614,515.158 A 25.450638,32.106956 0 0 1 231.79657,547.26495 L 206.34593,547.26495 z"
       sodipodi:start="4.712397"
       sodipodi:end="6.2831853"
       transform="matrix(-3.7436042,-1.5601408e-3,1.2220625e-3,-2.9666051,926.35538,1770.0753)"
       inkscape:export-filename="D:\Documenti\Workspaces\ProgettiNetBeans\MessengerSRC\Grafica\themeIcon.png"
       inkscape:export-xdpi="10.352058"
       inkscape:export-ydpi="10.352058" />
    <path
       sodipodi:type="arc"
       style="opacity:1;fill:#00ff00;fill-opacity:1;stroke:#000000;stroke-width:0.98842782;stroke-linejoin:round;stroke-miterlimit:4;stroke-dasharray:none;stroke-opacity:0"
       id="path6704"
       sodipodi:cx="206.34593"
       sodipodi:cy="547.26495"
       sodipodi:rx="25.450638"
       sodipodi:ry="32.106956"
       d="M 206.34614,515.158 A 25.450638,32.106956 0 0 1 231.79657,547.26495 L 206.34593,547.26495 z"
       sodipodi:start="4.712397"
       sodipodi:end="6.2831853"
       transform="matrix(6.1083409e-3,-3.744317,2.9628682,4.791623e-3,-1468.0496,916.19056)"
       inkscape:export-filename="D:\Documenti\Workspaces\ProgettiNetBeans\MessengerSRC\Grafica\themeIcon.png"
       inkscape:export-xdpi="10.352058"
       inkscape:export-ydpi="10.352058" />
    <rect
       style="opacity:1;fill:#ffffff;fill-opacity:0;stroke:none;stroke-width:1.47268188;stroke-linejoin:round;stroke-miterlimit:4;stroke-dasharray:none;stroke-opacity:1"
       id="rect6762"
       width="238.78485"
       height="236.68102"
       x="322.42337"
       y="31.436234"
       rx="27.980957"
       ry="27.980957" />
    <rect
       style="opacity:1;fill:#ffffff;fill-opacity:1;stroke:#0000ff;stroke-width:8.973;stroke-linejoin:round;stroke-miterlimit:4;stroke-dasharray:none;stroke-opacity:1"
       id="rect6764"
       width="234.42986"
       height="234.42986"
       x="325.21701"
       y="27.388412"
       rx="27.470636"
       ry="27.714821" />
    <path
       sodipodi:type="arc"
       style="opacity:1;fill:#0000ff;fill-opacity:1;stroke:none;stroke-width:0.97799999;stroke-linejoin:round;stroke-miterlimit:4;stroke-dasharray:none;stroke-opacity:0.15228427"
       id="path6766"
       sodipodi:cx="303.44989"
       sodipodi:cy="426.27652"
       sodipodi:rx="72.436432"
       sodipodi:ry="73.219528"
       d="M 375.88632,426.27652 A 72.436432,73.219528 0 1 1 231.01346,426.27652 A 72.436432,73.219528 0 1 1 375.88632,426.27652 z"
       transform="matrix(1.3391052,0,0,1.3247832,35.574382,-418.98699)" />
    <text
       xml:space="preserve"
       style="font-size:286.63418579px;font-style:normal;font-variant:normal;font-weight:bold;font-stretch:normal;text-align:start;line-height:125%;writing-mode:lr-tb;text-anchor:start;fill:#ffffff;fill-opacity:1;stroke:none;stroke-width:1px;stroke-linecap:butt;stroke-linejoin:miter;stroke-opacity:1;font-family:Vijaya;-inkscape-font-specification:Vijaya Bold"
       x="357.64584"
       y="253.08379"
       id="text6768"
       sodipodi:linespacing="125%"
       transform="matrix(1.0935289,-4.924047e-2,5.9053729e-2,0.9118114,0,0)"><tspan
         sodipodi:role="line"
         id="tspan6770"
         x="357.64584"
         y="253.08379">i</tspan></text>
    <rect
       style="opacity:1;fill:#ffffff;fill-opacity:0;stroke:none;stroke-width:1.47268188;stroke-linejoin:round;stroke-miterlimit:4;stroke-dasharray:none;stroke-opacity:1"
       id="rect6774"
       width="238.78485"
       height="236.68102"
       x="34.243824"
       y="311.78482"
       rx="27.980957"
       ry="27.980957"
       inkscape:export-filename="D:\Documenti\Workspaces\ProgettiNetBeans\MessengerSRC\Grafica\chatIcon.png"
       inkscape:export-xdpi="10.276682"
       inkscape:export-ydpi="10.276682" />
    <rect
       style="opacity:1;fill:#ffffff;fill-opacity:1;stroke:#00d455;stroke-width:8.973;stroke-linejoin:round;stroke-miterlimit:4;stroke-dasharray:none;stroke-opacity:1"
       id="rect6776"
       width="234.42986"
       height="234.42986"
       x="37.037464"
       y="307.73697"
       rx="27.470636"
       ry="27.714821"
       inkscape:export-filename="D:\Documenti\Workspaces\ProgettiNetBeans\MessengerSRC\Grafica\chatIcon.png"
       inkscape:export-xdpi="10.276682"
       inkscape:export-ydpi="10.276682" />
    <path
       sodipodi:type="arc"
       style="opacity:1;fill:#00d455;fill-opacity:1;stroke:none;stroke-width:0.97799999;stroke-linejoin:round;stroke-miterlimit:4;stroke-dasharray:none;stroke-opacity:0.15228427"
       id="path6778"
       sodipodi:cx="303.44989"
       sodipodi:cy="426.27652"
       sodipodi:rx="72.436432"
       sodipodi:ry="73.219528"
       d="M 375.88632,426.27652 A 72.436432,73.219528 0 1 1 231.01346,426.27652 A 72.436432,73.219528 0 1 1 375.88632,426.27652 z"
       transform="matrix(1.3391052,0,0,1.3247832,-252.79514,-138.53682)"
       inkscape:export-filename="D:\Documenti\Workspaces\ProgettiNetBeans\MessengerSRC\Grafica\chatIcon.png"
       inkscape:export-xdpi="10.276682"
       inkscape:export-ydpi="10.276682" />
    <a
       id="a2465"
       style="fill:#ffffff"
       transform="matrix(0.4257433,0,0,0.4156347,-5.3752104,298.61569)"
       inkscape:export-filename="D:\Documenti\Workspaces\ProgettiNetBeans\MessengerSRC\Grafica\chatIcon.png"
       inkscape:export-xdpi="10.276682"
       inkscape:export-ydpi="10.276682">
      <path
         sodipodi:nodetypes="ccc"
         id="path2417"
         d="M 258.57143,335.21932 C 253.65801,371.65195 226.13213,395.98557 190.78911,415.30155 C 249.64203,408.90668 317.03363,392.5042 349.76817,368.19038"
         style="fill:#ffffff;fill-rule:evenodd;stroke:#000000;stroke-width:1.04354358px;stroke-linecap:butt;stroke-linejoin:miter;stroke-opacity:0" />
      <path
         style="fill:#ffffff"
         d="M 260.10612,338.91293 C 260.54254,335.62285 260.46017,335.20586 259.45029,335.59339 C 256.94011,336.55662 241.24154,321.78432 235.2888,312.85754 C 227.05766,300.51404 224.57937,293.29357 224.14345,280.38563 C 223.77662,269.52269 224.61756,264.51534 228.23745,256.00872 C 233.57554,243.46439 246.16978,228.88119 260.38999,218.77844 C 274.27807,208.91165 299.22037,197.97152 319.31856,192.93134 C 357.75758,183.29169 403.79191,182.91428 441.77406,191.9274 C 487.82527,202.85532 523.26342,226.34139 535.93984,254.33428 C 540.86163,265.20302 542.43099,278.65224 540.07456,289.76959 C 536.97799,304.37922 525.74149,321.05676 511.54242,332.11787 C 489.4162,349.3543 462.0707,360.83514 428.96142,366.78893 C 412.93143,369.67148 403.73048,370.37422 382.53284,370.33499 C 360.19809,370.29364 352.04562,369.76591 351.14142,368.30289 C 350.69639,367.58278 348.94937,368.41975 343.86572,371.78856 C 173.82736,413.96968 263.89276,439.33146 260.10612,338.91293 z"
         id="path2386"
         transform="translate(-1.4285717,-0.7142853)"
         sodipodi:nodetypes="cssssssssssssscc" />
      <path
         style="fill:#ffffff;fill-opacity:0;stroke:none;stroke-width:1.03612506;stroke-opacity:1"
         d="M 381.25893,184.62946 C 351.09571,184.55612 323.58651,188.99592 299.13393,197.91071 C 288.78535,201.68354 274.26733,208.40007 266.16518,213.16071 C 248.8674,223.32446 231.45958,242.11923 226.07143,256.53571 C 223.14476,264.36628 222.73187,266.71708 222.72768,276.66071 C 222.72149,291.42277 225.03491,299.02848 233.32143,311.66071 C 235.50603,314.99098 240.27279,320.32868 244.97768,325.03571 C 247.33012,327.38923 249.66552,329.56662 251.63393,331.25446 C 253.60234,332.9423 255.12677,334.11767 256.19643,334.50446 C 257.25076,334.88571 257.83763,335.19548 258.10268,335.50446 C 258.36773,335.81344 258.44643,336.21186 258.44643,337.03571 C 258.44643,337.56845 258.13723,338.75699 257.60268,340.22321 C 257.06813,341.68943 256.32217,343.45272 255.50893,345.34821 C 253.88244,349.13919 251.98138,353.39452 250.85268,356.66071 C 244.0647,389.03248 202.06547,393.84221 189.82143,409.81696 C 189.45421,410.3579 189.19344,410.7092 188.66518,410.97321 C 188.15375,411.22881 187.29518,411.41218 185.88393,411.41071 C 185.83747,411.41066 185.83795,411.41114 185.79018,411.41071 L 185.72768,411.41071 L 185.79018,412.44196 C 185.8046,412.44209 185.8071,412.44186 185.82143,412.44196 L 191.75893,411.94196 C 191.78564,412.24257 192.12324,412.22055 192.29018,412.34821 C 244.29737,411.76428 295.28642,393.49746 341.82143,371.78571 L 348.19643,367.97321 L 352.54018,368.78571 C 354.50577,369.14289 358.5291,369.35615 363.72768,369.50446 C 368.92626,369.65277 375.27424,369.72638 381.72768,369.69196 C 394.63455,369.62312 407.9687,369.18526 413.66518,368.44196 C 457.84773,362.67684 495.21072,346.99955 517.60268,324.72321 C 534.42917,307.98354 541.39358,291.3854 539.44643,272.41071 C 537.83809,256.73818 532.14899,245.20998 519.69643,232.25446 C 508.98598,221.11135 497.55935,213.14842 480.97768,205.25446 C 455.13869,192.9534 427.14629,186.3889 394.35268,184.94196 C 389.93584,184.74708 385.56796,184.63994 381.25893,184.62946 z M 381.25893,185.66071 C 385.55314,185.67115 389.88736,185.77894 394.29018,185.97321 C 426.97204,187.41522 454.80306,193.95428 480.50893,206.19196 C 497.01328,214.04911 508.32002,221.91754 518.94643,232.97321 C 531.29596,245.82154 536.82666,257.05638 538.41518,272.53571 C 540.33071,291.20226 533.56972,307.37352 516.88393,323.97321 C 494.72848,346.01425 457.55763,361.66713 413.54018,367.41071 C 408.00205,368.13335 394.61573,368.56072 381.72768,368.62946 C 375.28366,368.66383 368.94069,368.62104 363.75893,368.47321 C 358.57717,368.32538 354.5205,368.08024 352.72768,367.75446 L 348.19643,366.94196 L 348.00893,366.87946 L 347.82143,367.00446 L 341.29018,370.87946 C 239.43909,391.85876 177.34366,462.7706 251.82143,357.00446 C 252.92278,353.8174 254.81493,349.58837 256.44643,345.78571 C 257.26218,343.88438 258.02361,342.06959 258.57143,340.56696 C 259.11925,339.06433 259.47768,337.90182 259.47768,337.03571 C 259.47768,336.12744 259.36908,335.41377 258.88393,334.84821 C 258.39878,334.28265 257.67116,333.93338 256.57143,333.53571 C 255.89205,333.29004 254.26011,332.13555 252.32143,330.47321 C 250.38275,328.81087 248.06559,326.62468 245.72768,324.28571 C 241.05186,319.60776 236.2456,314.26965 234.16518,311.09821 C 225.93372,298.54992 223.75278,291.31757 223.75893,276.66071 C 223.76311,266.74246 224.12611,264.67633 227.04018,256.87946 C 232.27342,242.87745 249.61955,224.06966 266.69643,214.03571 C 274.69864,209.33379 289.23923,202.62353 299.50893,198.87946 C 323.83073,190.01234 351.19948,185.58761 381.25893,185.66071 z"
         id="path2388"
         sodipodi:nodetypes="cssssssssssssccsscccccccccssssssssccssssssssccccccssssssssssssc" />
      <path
         style="fill:#ffffff"
         d=""
         id="path2390"
         transform="translate(-1.4285717,-0.7142853)" />
      <path
         style="fill:#ffffff"
         d=""
         id="path2392"
         transform="translate(-1.4285717,-0.7142853)" />
      <path
         style="fill:#ffffff"
         d=""
         id="path2394"
         transform="translate(-1.4285717,-0.7142853)" />
      <path
         style="fill:#ffffff"
         d="M 349.01962,368.79372 C 349.02676,368.78217 349.14794,368.68478 349.28891,368.5773 C 349.47824,368.43294 349.59449,368.36254 349.73381,368.30785 C 349.9167,368.23605 349.92671,368.2346 350.06472,368.26011 L 350.20704,368.28641 L 350.03833,368.30149 C 349.79117,368.32359 349.66963,368.37787 349.2807,368.63988 C 349.03111,368.80803 348.99913,368.82688 349.01962,368.79372 z"
         id="path2400"
         transform="translate(-1.4285717,-0.7142853)" />
    </a>
    <rect
       style="opacity:1;fill:#ffffff;fill-opacity:0;stroke:none;stroke-width:1.47268188;stroke-linejoin:round;stroke-miterlimit:4;stroke-dasharray:none;stroke-opacity:1"
       id="rect6926"
       width="238.78485"
       height="236.68102"
       x="317.72476"
       y="314.91721"
       rx="27.980957"
       ry="27.980957"
       inkscape:export-filename="D:\Documenti\Workspaces\ProgettiNetBeans\MessengerSRC\Grafica\exitIcon.png"
       inkscape:export-xdpi="10.276116"
       inkscape:export-ydpi="10.276116" />
    <rect
       style="opacity:1;fill:#ffffff;fill-opacity:1;stroke:#ff0b0b;stroke-width:9;stroke-linejoin:round;stroke-miterlimit:4;stroke-dasharray:none;stroke-opacity:1"
       id="rect6928"
       width="234.42986"
       height="234.42986"
       x="320.5184"
       y="310.86935"
       rx="27.470636"
       ry="27.714821"
       inkscape:export-filename="D:\Documenti\Workspaces\ProgettiNetBeans\MessengerSRC\Grafica\exitIcon.png"
       inkscape:export-xdpi="10.276116"
       inkscape:export-ydpi="10.276116" />
    <path
       sodipodi:type="arc"
       style="opacity:1;fill:#ff0000;fill-opacity:1;stroke:none;stroke-width:0.97799999;stroke-linejoin:round;stroke-miterlimit:4;stroke-dasharray:none;stroke-opacity:0.15228427"
       id="path6930"
       sodipodi:cx="303.44989"
       sodipodi:cy="426.27652"
       sodipodi:rx="72.436432"
       sodipodi:ry="73.219528"
       d="M 375.88632,426.27652 A 72.436432,73.219528 0 1 1 231.01346,426.27652 A 72.436432,73.219528 0 1 1 375.88632,426.27652 z"
       transform="matrix(1.3391052,0,0,1.3247832,32.252,-136.9706)"
       inkscape:export-filename="D:\Documenti\Workspaces\ProgettiNetBeans\MessengerSRC\Grafica\exitIcon.png"
       inkscape:export-xdpi="10.276116"
       inkscape:export-ydpi="10.276116" />
    <path
       sodipodi:type="arc"
       style="opacity:1;fill:#ffffff;fill-opacity:1;stroke:none;stroke-width:0.97799999;stroke-linejoin:round;stroke-miterlimit:4;stroke-dasharray:none;stroke-opacity:0.15228427"
       id="path6948"
       sodipodi:cx="303.44989"
       sodipodi:cy="426.27652"
       sodipodi:rx="72.436432"
       sodipodi:ry="73.219528"
       d="M 375.88632,426.27652 A 72.436432,73.219528 0 1 1 231.01346,426.27652 A 72.436432,73.219528 0 1 1 375.88632,426.27652 z"
       transform="matrix(0.9684427,0,0,0.9510083,143.99845,22.222739)"
       inkscape:export-filename="D:\Documenti\Workspaces\ProgettiNetBeans\MessengerSRC\Grafica\exitIcon.png"
       inkscape:export-xdpi="10.276116"
       inkscape:export-ydpi="10.276116" />
    <path
       sodipodi:type="arc"
       style="opacity:1;fill:#ff0000;fill-opacity:1;stroke:none;stroke-width:0.97799999;stroke-linejoin:round;stroke-miterlimit:4;stroke-dasharray:none;stroke-opacity:0.15228427"
       id="path6950"
       sodipodi:cx="303.44989"
       sodipodi:cy="426.27652"
       sodipodi:rx="72.436432"
       sodipodi:ry="73.219528"
       d="M 375.88632,426.27652 A 72.436432,73.219528 0 1 1 231.01346,426.27652 A 72.436432,73.219528 0 1 1 375.88632,426.27652 z"
       transform="matrix(0.6794077,0,0,0.6721413,231.93568,141.27802)"
       inkscape:export-filename="D:\Documenti\Workspaces\ProgettiNetBeans\MessengerSRC\Grafica\exitIcon.png"
       inkscape:export-xdpi="10.276116"
       inkscape:export-ydpi="10.276116" />
    <rect
       style="opacity:1;fill:#ff0000;fill-opacity:1;stroke:none;stroke-width:0.97799999;stroke-linejoin:round;stroke-miterlimit:4;stroke-dasharray:none;stroke-opacity:0.15228427"
       id="rect6952"
       width="35.438904"
       height="78.630066"
       x="420.27252"
       y="334.06262"
       rx="0"
       ry="27.714821"
       inkscape:export-filename="D:\Documenti\Workspaces\ProgettiNetBeans\MessengerSRC\Grafica\exitIcon.png"
       inkscape:export-xdpi="10.276116"
       inkscape:export-ydpi="10.276116" />
    <rect
       style="opacity:1;fill:#ffffff;fill-opacity:1;stroke:none;stroke-width:0.97799999;stroke-linejoin:round;stroke-miterlimit:4;stroke-dasharray:none;stroke-opacity:0.15228427"
       id="rect6958"
       width="22.388988"
       height="50.30114"
       x="427.12625"
       y="343.22504"
       ry="0"
       inkscape:export-filename="D:\Documenti\Workspaces\ProgettiNetBeans\MessengerSRC\Grafica\exitIcon.png"
       inkscape:export-xdpi="10.276116"
       inkscape:export-ydpi="10.276116" />
    <rect
       style="opacity:1;fill:#949494;fill-opacity:0.55329949;stroke:none;stroke-width:1.47268188;stroke-linejoin:round;stroke-miterlimit:4;stroke-dasharray:none;stroke-opacity:0.15228427;filter:url(#filter6724)"
       id="rect6962"
       width="238.78485"
       height="236.68102"
       x="35.511349"
       y="625.28912"
       rx="27.980957"
       ry="27.980957" />
    <rect
       style="opacity:1;fill:#ffffff;fill-opacity:0;stroke:none;stroke-width:1.47268188;stroke-linejoin:round;stroke-miterlimit:4;stroke-dasharray:none;stroke-opacity:1"
       id="rect6964"
       width="238.78485"
       height="236.68102"
       x="29.545252"
       y="623.45721"
       rx="27.980957"
       ry="27.980957" />
    <rect
       style="opacity:1;fill:#0000ff;fill-opacity:1;stroke:none;stroke-width:1.47268188000000010;stroke-linejoin:round;stroke-miterlimit:4;stroke-dasharray:none;stroke-opacity:0.15228427000000000"
       id="rect6966"
       width="234.42986"
       height="234.42986"
       x="32.338894"
       y="619.40936"
       rx="27.470636"
       ry="27.714821" />
    <path
       sodipodi:type="arc"
       style="opacity:1;fill:#ffffff;fill-opacity:1;stroke:none;stroke-width:0.97799999000000004;stroke-linejoin:round;stroke-miterlimit:4;stroke-dasharray:none;stroke-opacity:0.15228427000000000"
       id="path6968"
       sodipodi:cx="303.44989"
       sodipodi:cy="426.27652"
       sodipodi:rx="72.436432"
       sodipodi:ry="73.219528"
       d="M 375.88632,426.27652 A 72.436432,73.219528 0 1 1 231.01346,426.27652 A 72.436432,73.219528 0 1 1 375.88632,426.27652 z"
       transform="matrix(1.3273016,0,0,1.3273016,-254.57695,171.77604)" />
    <text
       xml:space="preserve"
       style="font-size:309.24188232000000000px;font-style:italic;font-variant:normal;font-weight:normal;font-stretch:normal;text-align:start;line-height:125%;writing-mode:lr-tb;text-anchor:start;fill:#0000ff;fill-opacity:1;stroke:none;stroke-width:1px;stroke-linecap:butt;stroke-linejoin:miter;stroke-opacity:1;font-family:Monotype Corsiva;-inkscape-font-specification:Monotype Corsiva Italic"
       x="4.4449749"
       y="983.06427"
       id="text6970"
       sodipodi:linespacing="125%"
       transform="matrix(1.2017193,-4.480736e-2,6.4896327e-2,0.8297213,0,0)"><tspan
         sodipodi:role="line"
         id="tspan6972"
         x="4.4449749"
         y="983.06427">i</tspan></text>
    <rect
       style="opacity:1;fill:#949494;fill-opacity:0.55329949;stroke:none;stroke-width:1.47268188;stroke-linejoin:round;stroke-miterlimit:4;stroke-dasharray:none;stroke-opacity:0.15228427;filter:url(#filter6724)"
       id="rect6974"
       width="238.78485"
       height="236.68102"
       x="372.24286"
       y="614.32581"
       rx="27.980957"
       ry="27.980957" />
    <rect
       style="opacity:1;fill:#ffffff;fill-opacity:0;stroke:none;stroke-width:1.47268188;stroke-linejoin:round;stroke-miterlimit:4;stroke-dasharray:none;stroke-opacity:1"
       id="rect6976"
       width="238.78485"
       height="236.68102"
       x="366.27676"
       y="612.4939"
       rx="27.980957"
       ry="27.980957" />
    <rect
       style="opacity:1;fill:#00ff00;fill-opacity:1;stroke:none;stroke-width:1.47268188000000010;stroke-linejoin:round;stroke-miterlimit:4;stroke-dasharray:none;stroke-opacity:0.15228427000000000"
       id="rect6978"
       width="234.42986"
       height="234.42986"
       x="369.0704"
       y="608.44604"
       rx="27.470636"
       ry="27.714821" />
    <path
       sodipodi:type="arc"
       style="opacity:1;fill:#00ff00;fill-opacity:1;stroke:none;stroke-width:0.97799999000000004;stroke-linejoin:round;stroke-miterlimit:4;stroke-dasharray:none;stroke-opacity:0.15228427000000000"
       id="path6980"
       sodipodi:cx="303.44989"
       sodipodi:cy="426.27652"
       sodipodi:rx="72.436432"
       sodipodi:ry="73.219528"
       d="M 375.88632,426.27652 A 72.436432,73.219528 0 1 1 231.01346,426.27652 A 72.436432,73.219528 0 1 1 375.88632,426.27652 z"
       transform="matrix(1.3921665,0,0,1.3921665,63.847521,131.64693)" />
    <a
       id="a6982"
       style="fill:#ffffff"
       transform="matrix(0.4257433,0,0,0.4156347,326.65772,599.32475)">
      <path
         sodipodi:nodetypes="ccc"
         id="path6984"
         d="M 258.57143,335.21932 C 253.65801,371.65195 226.13213,395.98557 190.78911,415.30155 C 249.64203,408.90668 317.03363,392.5042 349.76817,368.19038"
         style="fill:#ffffff;fill-rule:evenodd;stroke:#000000;stroke-width:1.04354357999999990px;stroke-linecap:butt;stroke-linejoin:miter;stroke-opacity:0" />
      <path
         style="fill:#ffffff"
         d="M 260.10612,338.91293 C 260.54254,335.62285 260.46017,335.20586 259.45029,335.59339 C 256.94011,336.55662 241.24154,321.78432 235.2888,312.85754 C 227.05766,300.51404 224.57937,293.29357 224.14345,280.38563 C 223.77662,269.52269 224.61756,264.51534 228.23745,256.00872 C 233.57554,243.46439 246.16978,228.88119 260.38999,218.77844 C 274.27807,208.91165 299.22037,197.97152 319.31856,192.93134 C 357.75758,183.29169 403.79191,182.91428 441.77406,191.9274 C 487.82527,202.85532 523.26342,226.34139 535.93984,254.33428 C 540.86163,265.20302 542.43099,278.65224 540.07456,289.76959 C 536.97799,304.37922 525.74149,321.05676 511.54242,332.11787 C 489.4162,349.3543 462.0707,360.83514 428.96142,366.78893 C 412.93143,369.67148 403.73048,370.37422 382.53284,370.33499 C 360.19809,370.29364 352.04562,369.76591 351.14142,368.30289 C 350.69639,367.58278 348.94937,368.41975 343.86572,371.78856 C 173.82736,413.96968 263.89276,439.33146 260.10612,338.91293 z"
         id="path6986"
         transform="translate(-1.4285717,-0.7142853)"
         sodipodi:nodetypes="cssssssssssssscc" />
      <path
         style="fill:#ffffff;fill-opacity:0;stroke:none;stroke-width:1.03612506000000000;stroke-opacity:1"
         d="M 381.25893,184.62946 C 351.09571,184.55612 323.58651,188.99592 299.13393,197.91071 C 288.78535,201.68354 274.26733,208.40007 266.16518,213.16071 C 248.8674,223.32446 231.45958,242.11923 226.07143,256.53571 C 223.14476,264.36628 222.73187,266.71708 222.72768,276.66071 C 222.72149,291.42277 225.03491,299.02848 233.32143,311.66071 C 235.50603,314.99098 240.27279,320.32868 244.97768,325.03571 C 247.33012,327.38923 249.66552,329.56662 251.63393,331.25446 C 253.60234,332.9423 255.12677,334.11767 256.19643,334.50446 C 257.25076,334.88571 257.83763,335.19548 258.10268,335.50446 C 258.36773,335.81344 258.44643,336.21186 258.44643,337.03571 C 258.44643,337.56845 258.13723,338.75699 257.60268,340.22321 C 257.06813,341.68943 256.32217,343.45272 255.50893,345.34821 C 253.88244,349.13919 251.98138,353.39452 250.85268,356.66071 C 244.0647,389.03248 202.06547,393.84221 189.82143,409.81696 C 189.45421,410.3579 189.19344,410.7092 188.66518,410.97321 C 188.15375,411.22881 187.29518,411.41218 185.88393,411.41071 C 185.83747,411.41066 185.83795,411.41114 185.79018,411.41071 L 185.72768,411.41071 L 185.79018,412.44196 C 185.8046,412.44209 185.8071,412.44186 185.82143,412.44196 L 191.75893,411.94196 C 191.78564,412.24257 192.12324,412.22055 192.29018,412.34821 C 244.29737,411.76428 295.28642,393.49746 341.82143,371.78571 L 348.19643,367.97321 L 352.54018,368.78571 C 354.50577,369.14289 358.5291,369.35615 363.72768,369.50446 C 368.92626,369.65277 375.27424,369.72638 381.72768,369.69196 C 394.63455,369.62312 407.9687,369.18526 413.66518,368.44196 C 457.84773,362.67684 495.21072,346.99955 517.60268,324.72321 C 534.42917,307.98354 541.39358,291.3854 539.44643,272.41071 C 537.83809,256.73818 532.14899,245.20998 519.69643,232.25446 C 508.98598,221.11135 497.55935,213.14842 480.97768,205.25446 C 455.13869,192.9534 427.14629,186.3889 394.35268,184.94196 C 389.93584,184.74708 385.56796,184.63994 381.25893,184.62946 z M 381.25893,185.66071 C 385.55314,185.67115 389.88736,185.77894 394.29018,185.97321 C 426.97204,187.41522 454.80306,193.95428 480.50893,206.19196 C 497.01328,214.04911 508.32002,221.91754 518.94643,232.97321 C 531.29596,245.82154 536.82666,257.05638 538.41518,272.53571 C 540.33071,291.20226 533.56972,307.37352 516.88393,323.97321 C 494.72848,346.01425 457.55763,361.66713 413.54018,367.41071 C 408.00205,368.13335 394.61573,368.56072 381.72768,368.62946 C 375.28366,368.66383 368.94069,368.62104 363.75893,368.47321 C 358.57717,368.32538 354.5205,368.08024 352.72768,367.75446 L 348.19643,366.94196 L 348.00893,366.87946 L 347.82143,367.00446 L 341.29018,370.87946 C 239.43909,391.85876 177.34366,462.7706 251.82143,357.00446 C 252.92278,353.8174 254.81493,349.58837 256.44643,345.78571 C 257.26218,343.88438 258.02361,342.06959 258.57143,340.56696 C 259.11925,339.06433 259.47768,337.90182 259.47768,337.03571 C 259.47768,336.12744 259.36908,335.41377 258.88393,334.84821 C 258.39878,334.28265 257.67116,333.93338 256.57143,333.53571 C 255.89205,333.29004 254.26011,332.13555 252.32143,330.47321 C 250.38275,328.81087 248.06559,326.62468 245.72768,324.28571 C 241.05186,319.60776 236.2456,314.26965 234.16518,311.09821 C 225.93372,298.54992 223.75278,291.31757 223.75893,276.66071 C 223.76311,266.74246 224.12611,264.67633 227.04018,256.87946 C 232.27342,242.87745 249.61955,224.06966 266.69643,214.03571 C 274.69864,209.33379 289.23923,202.62353 299.50893,198.87946 C 323.83073,190.01234 351.19948,185.58761 381.25893,185.66071 z"
         id="path6988"
         sodipodi:nodetypes="cssssssssssssccsscccccccccssssssssccssssssssccccccssssssssssssc" />
      <path
         style="fill:#ffffff"
         d=""
         id="path6990"
         transform="translate(-1.4285717,-0.7142853)" />
      <path
         style="fill:#ffffff"
         d=""
         id="path6992"
         transform="translate(-1.4285717,-0.7142853)" />
      <path
         style="fill:#ffffff"
         d=""
         id="path6994"
         transform="translate(-1.4285717,-0.7142853)" />
      <path
         style="fill:#ffffff"
         d="M 349.01962,368.79372 C 349.02676,368.78217 349.14794,368.68478 349.28891,368.5773 C 349.47824,368.43294 349.59449,368.36254 349.73381,368.30785 C 349.9167,368.23605 349.92671,368.2346 350.06472,368.26011 L 350.20704,368.28641 L 350.03833,368.30149 C 349.79117,368.32359 349.66963,368.37787 349.2807,368.63988 C 349.03111,368.80803 348.99913,368.82688 349.01962,368.79372 z"
         id="path6996"
         transform="translate(-1.4285717,-0.7142853)" />
    </a>
  </g>
</svg>
