<?xml version="1.0" encoding="UTF-8" standalone="no"?>
<!-- Created with Inkscape (http://www.inkscape.org/) -->
<svg
   xmlns:dc="http://purl.org/dc/elements/1.1/"
   xmlns:cc="http://creativecommons.org/ns#"
   xmlns:rdf="http://www.w3.org/1999/02/22-rdf-syntax-ns#"
   xmlns:svg="http://www.w3.org/2000/svg"
   xmlns="http://www.w3.org/2000/svg"
   xmlns:xlink="http://www.w3.org/1999/xlink"
   xmlns:sodipodi="http://sodipodi.sourceforge.net/DTD/sodipodi-0.dtd"
   xmlns:inkscape="http://www.inkscape.org/namespaces/inkscape"
   width="744.09448819"
   height="1052.3622047"
   id="svg2"
   sodipodi:version="0.32"
   inkscape:version="0.46"
   sodipodi:docname="logo.svg"
   inkscape:output_extension="org.inkscape.output.svg.inkscape">
  <defs
     id="defs4">
    <linearGradient
       id="linearGradient3268">
      <stop
         id="stop3270"
         offset="0"
         style="stop-color:#ffffff;stop-opacity:0.44354838;" />
      <stop
         style="stop-color:#ffffff;stop-opacity:0.09677419;"
         offset="0.25"
         id="stop3272" />
      <stop
         style="stop-color:#ffffff;stop-opacity:0;"
         offset="0.49119624"
         id="stop3274" />
      <stop
         id="stop3276"
         offset="0.625"
         style="stop-color:#ffffff;stop-opacity:0;" />
      <stop
         id="stop3278"
         offset="0.75"
         style="stop-color:#ffffff;stop-opacity:0;" />
      <stop
         id="stop3280"
         offset="1"
         style="stop-color:#ffffff;stop-opacity:0;" />
    </linearGradient>
    <linearGradient
       id="linearGradient3242">
      <stop
         style="stop-color:#ffffff;stop-opacity:0.44354838;"
         offset="0"
         id="stop3266" />
      <stop
         id="stop3258"
         offset="0.25"
         style="stop-color:#ffffff;stop-opacity:0.09677419;" />
      <stop
         id="stop3252"
         offset="0.5"
         style="stop-color:#ffffff;stop-opacity:0;" />
      <stop
         style="stop-color:#ffffff;stop-opacity:0;"
         offset="0.625"
         id="stop3256" />
      <stop
         style="stop-color:#ffffff;stop-opacity:0;"
         offset="0.75"
         id="stop3254" />
      <stop
         style="stop-color:#ffffff;stop-opacity:0;"
         offset="1"
         id="stop3246" />
    </linearGradient>
    <linearGradient
       id="linearGradient3230">
      <stop
         id="stop3260"
         offset="0"
         style="stop-color:#040404;stop-opacity:0.60000002;" />
      <stop
         style="stop-color:#070707;stop-opacity:0;"
         offset="0.40016058"
         id="stop3290" />
      <stop
         style="stop-color:#0a0a0a;stop-opacity:0;"
         offset="0.50470006"
         id="stop3286" />
      <stop
         id="stop3288"
         offset="0.51679444"
         style="stop-color:#dadada;stop-opacity:0;" />
      <stop
         style="stop-color:#ffffff;stop-opacity:0;"
         offset="1"
         id="stop3234" />
    </linearGradient>
    <linearGradient
       id="linearGradient3204">
      <stop
         style="stop-color:#ffffff;stop-opacity:0.35294119;"
         offset="0"
         id="stop3206" />
      <stop
         style="stop-color:#ffffff;stop-opacity:0;"
         offset="1"
         id="stop3208" />
    </linearGradient>
    <inkscape:perspective
       sodipodi:type="inkscape:persp3d"
       inkscape:vp_x="-282.31393 : 259.33242 : 1"
       inkscape:vp_y="1.3057768e-13 : 1400.383 : 0"
       inkscape:vp_z="1304.5165 : 259.33242 : 1"
       inkscape:persp3d-origin="511.10131 : 13.714073 : 1"
       id="perspective10" />
    <linearGradient
       inkscape:collect="always"
       xlink:href="#linearGradient3230"
       id="linearGradient3236"
       x1="-417.42905"
       y1="566.66577"
       x2="217.10689"
       y2="867.01776"
       gradientUnits="userSpaceOnUse"
       gradientTransform="translate(-439.73053,-434.06929)" />
    <linearGradient
       inkscape:collect="always"
       xlink:href="#linearGradient3268"
       id="linearGradient3250"
       gradientUnits="userSpaceOnUse"
       x1="-324.85669"
       y1="557.07208"
       x2="-10.362488"
       y2="653.55397"
       gradientTransform="matrix(1,0,0,0.9957214,805.94946,-853.50053)" />
  </defs>
  <sodipodi:namedview
     id="base"
     pagecolor="#666666"
     bordercolor="#666666"
     borderopacity="1.0"
     inkscape:pageopacity="0.65490196"
     inkscape:pageshadow="2"
     inkscape:zoom="0.5"
     inkscape:cx="-53.05222"
     inkscape:cy="559.34117"
     inkscape:document-units="px"
     inkscape:current-layer="layer1"
     showgrid="false"
     showguides="true"
     inkscape:guide-bbox="true"
     inkscape:window-width="1264"
     inkscape:window-height="722"
     inkscape:window-x="16"
     inkscape:window-y="78"
     inkscape:snap-global="false" />
  <metadata
     id="metadata7">
    <rdf:RDF>
      <cc:Work
         rdf:about="">
        <dc:format>image/svg+xml</dc:format>
        <dc:type
           rdf:resource="http://purl.org/dc/dcmitype/StillImage" />
      </cc:Work>
    </rdf:RDF>
  </metadata>
  <g
     inkscape:label="Livello 1"
     inkscape:groupmode="layer"
     id="layer1">
    <path
       sodipodi:type="arc"
       style="fill:#ffffff;fill-rule:evenodd;stroke:none;stroke-width:1px;stroke-linecap:butt;stroke-linejoin:miter;stroke-opacity:0;fill-opacity:1"
       id="path2403"
       sodipodi:cx="381.42856"
       sodipodi:cy="278.07648"
       sodipodi:rx="167.14285"
       sodipodi:ry="100"
       d="M 548.57141,278.07648 A 167.14285,100 0 1 1 214.28571,278.07648 A 167.14285,100 0 1 1 548.57141,278.07648 z" />
    <a
       transform="matrix(1.3041576,0,0,1.2448721,-84.553543,-91.070096)"
       style="fill:#ffffff;stroke:none"
       id="a2472">
      <path
         style="fill:#ffffff;fill-rule:evenodd;stroke:none;stroke-width:1px;stroke-linecap:butt;stroke-linejoin:miter;stroke-opacity:1"
         d="M 257.85714,335.93361 C 252.94372,372.36624 212.81288,392.25181 177.46986,411.56779 C 236.32278,406.55087 316.38271,394.04383 348.57143,368.07647"
         id="path2474"
         sodipodi:nodetypes="ccc" />
    </a>
    <a
       id="a2465"
       style="fill:#93a7ac"
       transform="matrix(0.9253452,0,0,0.9033742,29.14571,27.058551)">
      <path
         sodipodi:nodetypes="ccc"
         id="path2417"
         d="M 258.57143,335.21932 C 253.65801,371.65195 226.13213,395.98557 190.78911,415.30155 C 249.64203,408.90668 317.03363,392.5042 349.76817,368.19038"
         style="fill:#93a7ac;fill-rule:evenodd;stroke:#000000;stroke-width:1.04354358px;stroke-linecap:butt;stroke-linejoin:miter;stroke-opacity:0" />
      <path
         style="fill:#93a7ac"
         d="M 260.10612,338.91293 C 260.54254,335.62285 260.46017,335.20586 259.45029,335.59339 C 256.94011,336.55662 241.24154,321.78432 235.2888,312.85754 C 227.05766,300.51404 224.57937,293.29357 224.14345,280.38563 C 223.77662,269.52269 224.61756,264.51534 228.23745,256.00872 C 233.57554,243.46439 246.16978,228.88119 260.38999,218.77844 C 274.27807,208.91165 299.22037,197.97152 319.31856,192.93134 C 357.75758,183.29169 403.79191,182.91428 441.77406,191.9274 C 487.82527,202.85532 523.26342,226.34139 535.93984,254.33428 C 540.86163,265.20302 542.43099,278.65224 540.07456,289.76959 C 536.97799,304.37922 525.74149,321.05676 511.54242,332.11787 C 489.4162,349.3543 462.0707,360.83514 428.96142,366.78893 C 412.93143,369.67148 403.73048,370.37422 382.53284,370.33499 C 360.19809,370.29364 352.04562,369.76591 351.14142,368.30289 C 350.69639,367.58278 348.94937,368.41975 343.86572,371.78856 C 173.82736,413.96968 263.89276,439.33146 260.10612,338.91293 z"
         id="path2386"
         transform="translate(-1.4285717,-0.7142853)"
         sodipodi:nodetypes="cssssssssssssscc" />
      <path
         style="fill:#000082;fill-opacity:0;stroke:none;stroke-width:1.03612506;stroke-opacity:1"
         d="M 381.25893,184.62946 C 351.09571,184.55612 323.58651,188.99592 299.13393,197.91071 C 288.78535,201.68354 274.26733,208.40007 266.16518,213.16071 C 248.8674,223.32446 231.45958,242.11923 226.07143,256.53571 C 223.14476,264.36628 222.73187,266.71708 222.72768,276.66071 C 222.72149,291.42277 225.03491,299.02848 233.32143,311.66071 C 235.50603,314.99098 240.27279,320.32868 244.97768,325.03571 C 247.33012,327.38923 249.66552,329.56662 251.63393,331.25446 C 253.60234,332.9423 255.12677,334.11767 256.19643,334.50446 C 257.25076,334.88571 257.83763,335.19548 258.10268,335.50446 C 258.36773,335.81344 258.44643,336.21186 258.44643,337.03571 C 258.44643,337.56845 258.13723,338.75699 257.60268,340.22321 C 257.06813,341.68943 256.32217,343.45272 255.50893,345.34821 C 253.88244,349.13919 251.98138,353.39452 250.85268,356.66071 C 244.0647,389.03248 202.06547,393.84221 189.82143,409.81696 C 189.45421,410.3579 189.19344,410.7092 188.66518,410.97321 C 188.15375,411.22881 187.29518,411.41218 185.88393,411.41071 C 185.83747,411.41066 185.83795,411.41114 185.79018,411.41071 L 185.72768,411.41071 L 185.79018,412.44196 C 185.8046,412.44209 185.8071,412.44186 185.82143,412.44196 L 191.75893,411.94196 C 191.78564,412.24257 192.12324,412.22055 192.29018,412.34821 C 244.29737,411.76428 295.28642,393.49746 341.82143,371.78571 L 348.19643,367.97321 L 352.54018,368.78571 C 354.50577,369.14289 358.5291,369.35615 363.72768,369.50446 C 368.92626,369.65277 375.27424,369.72638 381.72768,369.69196 C 394.63455,369.62312 407.9687,369.18526 413.66518,368.44196 C 457.84773,362.67684 495.21072,346.99955 517.60268,324.72321 C 534.42917,307.98354 541.39358,291.3854 539.44643,272.41071 C 537.83809,256.73818 532.14899,245.20998 519.69643,232.25446 C 508.98598,221.11135 497.55935,213.14842 480.97768,205.25446 C 455.13869,192.9534 427.14629,186.3889 394.35268,184.94196 C 389.93584,184.74708 385.56796,184.63994 381.25893,184.62946 z M 381.25893,185.66071 C 385.55314,185.67115 389.88736,185.77894 394.29018,185.97321 C 426.97204,187.41522 454.80306,193.95428 480.50893,206.19196 C 497.01328,214.04911 508.32002,221.91754 518.94643,232.97321 C 531.29596,245.82154 536.82666,257.05638 538.41518,272.53571 C 540.33071,291.20226 533.56972,307.37352 516.88393,323.97321 C 494.72848,346.01425 457.55763,361.66713 413.54018,367.41071 C 408.00205,368.13335 394.61573,368.56072 381.72768,368.62946 C 375.28366,368.66383 368.94069,368.62104 363.75893,368.47321 C 358.57717,368.32538 354.5205,368.08024 352.72768,367.75446 L 348.19643,366.94196 L 348.00893,366.87946 L 347.82143,367.00446 L 341.29018,370.87946 C 239.43909,391.85876 177.34366,462.7706 251.82143,357.00446 C 252.92278,353.8174 254.81493,349.58837 256.44643,345.78571 C 257.26218,343.88438 258.02361,342.06959 258.57143,340.56696 C 259.11925,339.06433 259.47768,337.90182 259.47768,337.03571 C 259.47768,336.12744 259.36908,335.41377 258.88393,334.84821 C 258.39878,334.28265 257.67116,333.93338 256.57143,333.53571 C 255.89205,333.29004 254.26011,332.13555 252.32143,330.47321 C 250.38275,328.81087 248.06559,326.62468 245.72768,324.28571 C 241.05186,319.60776 236.2456,314.26965 234.16518,311.09821 C 225.93372,298.54992 223.75278,291.31757 223.75893,276.66071 C 223.76311,266.74246 224.12611,264.67633 227.04018,256.87946 C 232.27342,242.87745 249.61955,224.06966 266.69643,214.03571 C 274.69864,209.33379 289.23923,202.62353 299.50893,198.87946 C 323.83073,190.01234 351.19948,185.58761 381.25893,185.66071 z"
         id="path2388"
         sodipodi:nodetypes="cssssssssssssccsscccccccccssssssssccssssssssccccccssssssssssssc" />
      <path
         style="fill:#93a7ac"
         d=""
         id="path2390"
         transform="translate(-1.4285717,-0.7142853)" />
      <path
         style="fill:#93a7ac"
         d=""
         id="path2392"
         transform="translate(-1.4285717,-0.7142853)" />
      <path
         style="fill:#93a7ac"
         d=""
         id="path2394"
         transform="translate(-1.4285717,-0.7142853)" />
      <path
         style="fill:#93a7ac"
         d="M 349.01962,368.79372 C 349.02676,368.78217 349.14794,368.68478 349.28891,368.5773 C 349.47824,368.43294 349.59449,368.36254 349.73381,368.30785 C 349.9167,368.23605 349.92671,368.2346 350.06472,368.26011 L 350.20704,368.28641 L 350.03833,368.30149 C 349.79117,368.32359 349.66963,368.37787 349.2807,368.63988 C 349.03111,368.80803 348.99913,368.82688 349.01962,368.79372 z"
         id="path2400"
         transform="translate(-1.4285717,-0.7142853)" />
    </a>
    <text
       xml:space="preserve"
       style="font-size:223.93278503px;font-style:normal;font-variant:normal;font-weight:bold;font-stretch:normal;text-align:start;line-height:125%;writing-mode:lr-tb;text-anchor:start;fill:#ffffff;fill-opacity:1;stroke:none;stroke-width:1px;stroke-linecap:butt;stroke-linejoin:miter;stroke-opacity:1;font-family:Arial;-inkscape-font-specification:Arial Bold"
       x="275.54294"
       y="412.50891"
       id="text3172"
       transform="scale(1.1922035,0.838783)"
       sodipodi:linespacing="125%"><tspan
         sodipodi:role="line"
         id="tspan3174"
         x="275.54294"
         y="412.50891">f</tspan></text>
    <rect
       style="fill:#008080;fill-opacity:1;stroke:#6e6e6e;stroke-opacity:1"
       id="rect2403"
       width="0"
       height="53.538086"
       x="237.38585"
       y="470.51431"
       rx="0"
       ry="53.538086" />
    <rect
       style="opacity:1;fill:#008080;fill-opacity:1;fill-rule:nonzero;stroke:none;stroke-width:1;stroke-miterlimit:4;stroke-dasharray:none;stroke-opacity:1"
       id="rect2416"
       width="330"
       height="329.9758"
       x="37.232544"
       y="467.35287"
       ry="74.953323"
       rx="69.296471"
       inkscape:export-filename="D:\Documenti\Workspaces\ProgettiNetBeans\MessengerSRC\Grafica\logo.ico.png"
       inkscape:export-xdpi="69.823311"
       inkscape:export-ydpi="69.823311" />
    <a
       id="a3955"
       style="opacity:1;fill:#ffffff;stroke:#008080;stroke-width:9.28336716;stroke-miterlimit:4;stroke-dasharray:none;stroke-opacity:1"
       transform="matrix(0.8790357,0,0,0.9380751,-118.99229,353.17905)"
       inkscape:export-filename="D:\Documenti\Workspaces\ProgettiNetBeans\MessengerSRC\Grafica\logo.ico.png"
       inkscape:export-xdpi="69.823311"
       inkscape:export-ydpi="69.823311">
      <path
         style="fill:#ffffff;stroke:#008080;stroke-width:9.28336716;stroke-miterlimit:4;stroke-dasharray:none;stroke-opacity:1"
         d=""
         id="path3957"
         transform="translate(-1.4285717,-0.7142853)" />
      <path
         style="fill:#ffffff;stroke:#008080;stroke-width:9.28336716;stroke-miterlimit:4;stroke-dasharray:none;stroke-opacity:1"
         d=""
         id="path3959"
         transform="translate(-1.4285717,-0.7142853)" />
      <path
         style="fill:#ffffff;stroke:#008080;stroke-width:9.28336716;stroke-miterlimit:4;stroke-dasharray:none;stroke-opacity:1"
         d=""
         id="path3961"
         transform="translate(-1.4285717,-0.7142853)" />
      <g
         id="g3963"
         transform="matrix(0.9798346,0,0,1,8.9885186,0)"
         style="fill:#ffffff;stroke:#008080;stroke-width:9.37840843;stroke-miterlimit:4;stroke-dasharray:none;stroke-opacity:1">
        <path
           transform="matrix(1.7323112,0,0,1.3367528,-87.347715,-519.03274)"
           d="M 357.14287,605.2193 A 97.321426,65.35714 0 1 1 162.50002,605.2193 A 97.321426,65.35714 0 1 1 357.14287,605.2193 z"
           sodipodi:ry="65.35714"
           sodipodi:rx="97.321426"
           sodipodi:cy="605.2193"
           sodipodi:cx="259.82144"
           id="path3965"
           style="fill:#ffffff;fill-opacity:1;fill-rule:nonzero;stroke:none;stroke-width:7.35913897;stroke-miterlimit:4;stroke-dasharray:none;stroke-opacity:1"
           sodipodi:type="arc" />
        <path
           style="fill:#ffffff;fill-rule:evenodd;stroke:none;stroke-width:11.66445446;stroke-linecap:butt;stroke-linejoin:miter;stroke-miterlimit:4;stroke-dasharray:none;stroke-opacity:1"
           d="M 257.80554,355.15546 C 257.09441,377.37627 239.31031,392.60074 201.10328,409.87323 C 251.07146,417.14535 324.70264,417.22459 354.33703,374.64556"
           id="path3967"
           sodipodi:nodetypes="ccc" />
      </g>
    </a>
    <text
       xml:space="preserve"
       style="font-size:223.57382202px;font-style:normal;font-variant:normal;font-weight:bold;font-stretch:normal;text-align:start;line-height:125%;writing-mode:lr-tb;text-anchor:start;fill:#008080;fill-opacity:1;stroke:none;stroke-width:1px;stroke-linecap:butt;stroke-linejoin:miter;stroke-opacity:1;font-family:Arial;-inkscape-font-specification:Arial Bold"
       x="113.72207"
       y="871.96954"
       id="text2412"
       transform="scale(1.2721337,0.7860809)"
       sodipodi:linespacing="125%"
       inkscape:export-xdpi="69.823311"
       inkscape:export-ydpi="69.823311"
       inkscape:export-filename="D:\Documenti\Workspaces\ProgettiNetBeans\MessengerSRC\Grafica\logo.ico.png"><tspan
         sodipodi:role="line"
         id="tspan2414"
         x="113.72207"
         y="871.96954">f</tspan></text>
    <a
       id="a2410"
       style="opacity:1;fill:#008080;stroke:#008080;stroke-width:10.38795185000000000;stroke-miterlimit:4;stroke-dasharray:none;stroke-opacity:1"
       transform="matrix(0.7637657,0,0,0.862254,270.19411,633.75343)"
       inkscape:export-filename="D:\Documenti\Workspaces\ProgettiNetBeans\MessengerSRC\Grafica\logo.png"
       inkscape:export-xdpi="81.413422"
       inkscape:export-ydpi="81.413422">
      <path
         style="fill:#008080;stroke:#008080;stroke-width:10.38795185000000000;stroke-miterlimit:4;stroke-dasharray:none;stroke-opacity:1"
         d=""
         id="path2412"
         transform="translate(-1.4285717,-0.7142853)" />
      <path
         style="fill:#008080;stroke:#008080;stroke-width:10.38795185000000000;stroke-miterlimit:4;stroke-dasharray:none;stroke-opacity:1"
         d=""
         id="path2414"
         transform="translate(-1.4285717,-0.7142853)" />
      <path
         style="fill:#008080;stroke:#008080;stroke-width:10.38795185000000000;stroke-miterlimit:4;stroke-dasharray:none;stroke-opacity:1"
         d=""
         id="path2416"
         transform="translate(-1.4285717,-0.7142853)" />
      <g
         id="g2418"
         transform="matrix(0.9798346,0,0,1,8.9885186,0)"
         style="fill:#008080;stroke:#008080;stroke-width:10.49430083999999900;stroke-miterlimit:4;stroke-dasharray:none;stroke-opacity:1">
        <path
           transform="matrix(1.7919601,0,0,1.4019951,-92.396567,-571.3108)"
           d="M 357.14287,605.2193 A 97.321426,65.35714 0 1 1 162.50002,605.2193 A 97.321426,65.35714 0 1 1 357.14287,605.2193 z"
           sodipodi:ry="65.35714"
           sodipodi:rx="97.321426"
           sodipodi:cy="605.2193"
           sodipodi:cx="259.82144"
           id="path2420"
           style="fill:#008080;fill-opacity:1;fill-rule:nonzero;stroke:none;stroke-width:7.35913897000000010;stroke-miterlimit:4;stroke-dasharray:none;stroke-opacity:1"
           sodipodi:type="arc" />
        <path
           style="fill:#008080;fill-rule:evenodd;stroke:none;stroke-width:11.66445446000000000;stroke-linecap:butt;stroke-linejoin:miter;stroke-miterlimit:4;stroke-dasharray:none;stroke-opacity:1"
           d="M 249.6871,339.98831 C 248.97597,362.20912 206.61427,387.33994 168.40724,404.61243 C 218.37542,411.88455 332.77978,390.08834 366.519,367.86149"
           id="path2422"
           sodipodi:nodetypes="ccc" />
      </g>
    </a>
    <a
       id="a2424"
       style="opacity:1;fill:#ffffff;fill-opacity:1;stroke:#008080;stroke-width:12.6951685;stroke-miterlimit:4;stroke-dasharray:none;stroke-opacity:1"
       transform="matrix(0.6513802,0,0,0.6769297,313.63778,683.74461)"
       inkscape:export-filename="D:\Documenti\Workspaces\ProgettiNetBeans\MessengerSRC\Grafica\logo.png"
       inkscape:export-xdpi="81.413422"
       inkscape:export-ydpi="81.413422">
      <path
         style="fill:#ffffff;fill-opacity:1;stroke:#008080;stroke-width:12.6951685;stroke-miterlimit:4;stroke-dasharray:none;stroke-opacity:1"
         d=""
         id="path2426"
         transform="translate(-1.4285717,-0.7142853)" />
      <path
         style="fill:#ffffff;fill-opacity:1;stroke:#008080;stroke-width:12.6951685;stroke-miterlimit:4;stroke-dasharray:none;stroke-opacity:1"
         d=""
         id="path2428"
         transform="translate(-1.4285717,-0.7142853)" />
      <path
         style="fill:#ffffff;fill-opacity:1;stroke:#008080;stroke-width:12.6951685;stroke-miterlimit:4;stroke-dasharray:none;stroke-opacity:1"
         d=""
         id="path2430"
         transform="translate(-1.4285717,-0.7142853)" />
      <g
         id="g2432"
         transform="matrix(0.9798346,0,0,1,8.9885186,0)"
         style="fill:#ffffff;fill-opacity:1;stroke:#008080;stroke-width:12.82513905;stroke-miterlimit:4;stroke-dasharray:none;stroke-opacity:1">
        <path
           transform="matrix(1.5945625,0,0,1.3510241,-61.542743,-533.05567)"
           d="M 357.14287,605.2193 A 97.321426,65.35714 0 1 1 162.50002,605.2193 A 97.321426,65.35714 0 1 1 357.14287,605.2193 z"
           sodipodi:ry="65.35714"
           sodipodi:rx="97.321426"
           sodipodi:cy="605.2193"
           sodipodi:cx="259.82144"
           id="path2434"
           style="fill:#ffffff;fill-opacity:1;fill-rule:nonzero;stroke:none;stroke-width:7.35913897;stroke-miterlimit:4;stroke-dasharray:none;stroke-opacity:1"
           sodipodi:type="arc" />
        <path
           style="fill:#ffffff;fill-opacity:1;fill-rule:evenodd;stroke:none;stroke-width:11.66445446;stroke-linecap:butt;stroke-linejoin:miter;stroke-miterlimit:4;stroke-dasharray:none;stroke-opacity:1"
           d="M 265.73719,339.50873 C 274.44573,360.57356 248.41399,402.12608 194.61119,423.83119 C 259.83423,421.70114 343.87819,392.17531 376.61273,367.86149"
           id="path2436"
           sodipodi:nodetypes="ccc" />
      </g>
    </a>
    <text
       xml:space="preserve"
       style="font-size:164.89396667px;font-style:normal;font-variant:normal;font-weight:bold;font-stretch:normal;text-align:start;line-height:125%;writing-mode:lr-tb;text-anchor:start;fill:#008080;fill-opacity:1;stroke:none;stroke-width:1px;stroke-linecap:butt;stroke-linejoin:miter;stroke-opacity:1;font-family:Arial;-inkscape-font-specification:Arial Bold"
       x="425.7457"
       y="1091.213"
       id="text2438"
       transform="scale(1.1765106,0.8499711)"
       sodipodi:linespacing="125%"
       inkscape:export-xdpi="81.413422"
       inkscape:export-ydpi="81.413422"
       inkscape:export-filename="D:\Documenti\Workspaces\ProgettiNetBeans\MessengerSRC\Grafica\logo.png"><tspan
         sodipodi:role="line"
         id="tspan2440"
         x="425.7457"
         y="1091.213">f</tspan></text>
    <rect
       style="opacity:0.70355731;fill:url(#linearGradient3236);fill-opacity:1;fill-rule:nonzero;stroke:none;stroke-width:1;stroke-miterlimit:4;stroke-dasharray:none;stroke-opacity:1"
       id="rect3228"
       width="330"
       height="329.9758"
       x="-797.06366"
       y="37.526302"
       ry="74.953323"
       rx="69.296471"
       inkscape:export-filename="D:\Documenti\Workspaces\ProgettiNetBeans\MessengerSRC\Grafica\logo.ico.png"
       inkscape:export-xdpi="69.823311"
       inkscape:export-ydpi="69.823311"
       transform="matrix(1.3720881e-3,-0.9999991,0.9999991,1.3720881e-3,0,0)" />
    <rect
       style="opacity:1;fill:url(#linearGradient3250);fill-opacity:1;fill-rule:nonzero;stroke:none;stroke-width:1;stroke-miterlimit:4;stroke-dasharray:none;stroke-opacity:1"
       id="rect3240"
       width="330"
       height="328.56396"
       x="465.58704"
       y="-367.02515"
       ry="74.632622"
       rx="69.296471"
       inkscape:export-filename="D:\Documenti\Workspaces\ProgettiNetBeans\MessengerSRC\Grafica\logo.ico.png"
       inkscape:export-xdpi="69.823311"
       inkscape:export-ydpi="69.823311"
       transform="matrix(-2.8591702e-3,0.9999959,-0.9999958,-2.8837965e-3,0,0)" />
    <rect
       style="opacity:1;fill:#000000;fill-opacity:1;fill-rule:nonzero;stroke:none;stroke-width:8.97999954;stroke-miterlimit:4;stroke-dasharray:none;stroke-opacity:1"
       id="rect3282"
       width="1.4142135"
       height="15.556349"
       x="132.93608"
       y="796.38953"
       rx="69.296471"
       ry="15.556349" />
    <rect
       style="opacity:1;fill:#000000;fill-opacity:1;fill-rule:nonzero;stroke:none;stroke-width:8.97999954;stroke-miterlimit:4;stroke-dasharray:none;stroke-opacity:1"
       id="rect3284"
       width="0"
       height="18.384777"
       x="330.92596"
       y="581.42908"
       rx="69.296471"
       ry="18.384777" />
  </g>
</svg>
