<?xml version="1.0" encoding="UTF-8" standalone="no"?>
<!-- Created with Inkscape (http://www.inkscape.org/) -->
<svg
   xmlns:dc="http://purl.org/dc/elements/1.1/"
   xmlns:cc="http://creativecommons.org/ns#"
   xmlns:rdf="http://www.w3.org/1999/02/22-rdf-syntax-ns#"
   xmlns:svg="http://www.w3.org/2000/svg"
   xmlns="http://www.w3.org/2000/svg"
   xmlns:sodipodi="http://sodipodi.sourceforge.net/DTD/sodipodi-0.dtd"
   xmlns:inkscape="http://www.inkscape.org/namespaces/inkscape"
   width="1024"
   height="700"
   id="svg2"
   sodipodi:version="0.32"
   inkscape:version="0.46"
   version="1.0"
   sodipodi:docname="softwebSito.svg"
   inkscape:output_extension="org.inkscape.output.svg.inkscape">
  <defs
     id="defs4">
    <inkscape:perspective
       sodipodi:type="inkscape:persp3d"
       inkscape:vp_x="0 : 526.18109 : 1"
       inkscape:vp_y="0 : 1000 : 0"
       inkscape:vp_z="744.09448 : 526.18109 : 1"
       inkscape:persp3d-origin="372.04724 : 350.78739 : 1"
       id="perspective10" />
  </defs>
  <sodipodi:namedview
     id="base"
     pagecolor="#ffffff"
     bordercolor="#666666"
     borderopacity="1.0"
     inkscape:pageopacity="0.0"
     inkscape:pageshadow="2"
     inkscape:zoom="1.4"
     inkscape:cx="170.12195"
     inkscape:cy="658.59169"
     inkscape:document-units="px"
     inkscape:current-layer="layer1"
     showgrid="false"
     inkscape:window-width="1264"
     inkscape:window-height="750"
     inkscape:window-x="0"
     inkscape:window-y="14" />
  <metadata
     id="metadata7">
    <rdf:RDF>
      <cc:Work
         rdf:about="">
        <dc:format>image/svg+xml</dc:format>
        <dc:type
           rdf:resource="http://purl.org/dc/dcmitype/StillImage" />
      </cc:Work>
    </rdf:RDF>
  </metadata>
  <g
     inkscape:label="Livello 1"
     inkscape:groupmode="layer"
     id="layer1">
    <rect
       style="opacity:1;fill:#79ff55;fill-opacity:1;fill-rule:nonzero;stroke:none;stroke-width:8.97999954;stroke-miterlimit:4;stroke-dasharray:none;stroke-opacity:1"
       id="rect2429"
       width="1026.4286"
       height="3.8672955"
       x="-0.71428573"
       y="109.28571"
       rx="1135.851"
       ry="0" />
    <rect
       style="opacity:1;fill:#ff9955;fill-opacity:1;fill-rule:nonzero;stroke:none;stroke-width:8.97999954;stroke-miterlimit:4;stroke-dasharray:none;stroke-opacity:1"
       id="rect2407"
       width="3.5714285"
       height="702.14276"
       x="180.71428"
       y="-0.49496135"
       rx="15.149949"
       ry="0" />
    <rect
       style="opacity:1;fill:#ff6600;fill-opacity:1;fill-rule:nonzero;stroke:none;stroke-width:0;stroke-miterlimit:4;stroke-dasharray:none;stroke-opacity:1"
       id="rect2420"
       width="38.57143"
       height="88.571434"
       x="105.35714"
       y="10.714285"
       rx="0"
       ry="5.5558391" />
    <path
       sodipodi:type="arc"
       style="opacity:1;fill:#ff6600;fill-opacity:1;fill-rule:nonzero;stroke:none;stroke-width:8.97999954;stroke-miterlimit:4;stroke-dasharray:none;stroke-opacity:1"
       id="path3201"
       sodipodi:cx="87.85714"
       sodipodi:cy="56.42857"
       sodipodi:rx="49.285713"
       sodipodi:ry="45"
       d="M 137.14285,56.42857 A 49.285713,45 0 1 1 38.571426,56.42857 A 49.285713,45 0 1 1 137.14285,56.42857 z"
       transform="matrix(0.9130435,0,0,1,-11.645964,-2.1428571)" />
    <path
       sodipodi:type="arc"
       style="opacity:1;fill:#ffffff;fill-opacity:1;fill-rule:nonzero;stroke:none;stroke-width:0;stroke-miterlimit:4;stroke-dasharray:none;stroke-opacity:1"
       id="path2382"
       sodipodi:cx="94.954338"
       sodipodi:cy="69.917351"
       sodipodi:rx="40.911179"
       sodipodi:ry="36.618031"
       d="M 135.86552,69.917351 A 40.911179,36.618031 0 1 1 54.043159,69.917351 A 40.911179,36.618031 0 1 1 135.86552,69.917351 z"
       transform="matrix(0.9074075,0,0,0.9862068,-13.679471,-17.845997)" />
    <path
       sodipodi:type="arc"
       style="opacity:1;fill:#ff6600;fill-opacity:1;fill-rule:nonzero;stroke:none;stroke-width:0;stroke-miterlimit:4;stroke-dasharray:none;stroke-opacity:1"
       id="path2384"
       sodipodi:cx="95.711952"
       sodipodi:cy="60.573441"
       sodipodi:rx="30.052038"
       sodipodi:ry="28.284271"
       d="M 125.76399,60.573441 A 30.052038,28.284271 0 1 1 65.659914,60.573441 A 30.052038,28.284271 0 1 1 125.76399,60.573441 z"
       transform="matrix(1.0059421,0,0,1.020921,-31.787187,-7.5373782)" />
    <path
       sodipodi:type="arc"
       style="opacity:1;fill:#ffffff;fill-opacity:1;fill-rule:nonzero;stroke:none;stroke-width:0;stroke-miterlimit:4;stroke-dasharray:none;stroke-opacity:1"
       id="path2386"
       sodipodi:cx="95.711952"
       sodipodi:cy="60.573441"
       sodipodi:rx="30.052038"
       sodipodi:ry="28.284271"
       d="M 125.76399,60.573441 A 30.052038,28.284271 0 1 1 65.659914,60.573441 A 30.052038,28.284271 0 1 1 125.76399,60.573441 z"
       transform="matrix(0.7981445,0,0,0.8460479,-5.2637652,6.8155955e-2)" />
    <path
       sodipodi:type="arc"
       style="opacity:1;fill:#ff6600;fill-opacity:1;fill-rule:nonzero;stroke:none;stroke-width:0;stroke-miterlimit:4;stroke-dasharray:none;stroke-opacity:1"
       id="path2388"
       sodipodi:cx="95.711952"
       sodipodi:cy="60.573441"
       sodipodi:rx="30.052038"
       sodipodi:ry="28.284271"
       d="M 125.76399,60.573441 A 30.052038,28.284271 0 1 1 65.659914,60.573441 A 30.052038,28.284271 0 1 1 125.76399,60.573441 z"
       transform="matrix(0.48722,0,0,0.5124411,23.304513,23.824092)" />
    <path
       sodipodi:type="arc"
       style="opacity:1;fill:#ffffff;fill-opacity:1;fill-rule:nonzero;stroke:none;stroke-width:0;stroke-miterlimit:4;stroke-dasharray:none;stroke-opacity:1"
       id="path2390"
       sodipodi:cx="87.88327"
       sodipodi:cy="62.593742"
       sodipodi:rx="6.0609155"
       sodipodi:ry="6.0609155"
       d="M 93.944186,62.593742 A 6.0609155,6.0609155 0 1 1 81.822355,62.593742 A 6.0609155,6.0609155 0 1 1 93.944186,62.593742 z"
       transform="matrix(0.9705372,0,0,0.9410745,-12.442254,-12.744554)" />
    <path
       sodipodi:type="arc"
       style="opacity:1;fill:#ff6600;fill-opacity:1;fill-rule:nonzero;stroke:none;stroke-width:8.97999954;stroke-miterlimit:4;stroke-dasharray:none;stroke-opacity:1"
       id="path2392"
       sodipodi:cx="87.85714"
       sodipodi:cy="56.42857"
       sodipodi:rx="49.285713"
       sodipodi:ry="45"
       d="M 137.14285,56.42857 A 49.285713,45 0 1 1 38.571426,56.42857 A 49.285713,45 0 1 1 137.14285,56.42857 z"
       transform="matrix(0.8550725,0,0,0.9325397,-11.909937,-174.94331)" />
    <path
       sodipodi:type="arc"
       style="opacity:1;fill:#ffffff;fill-opacity:1;fill-rule:nonzero;stroke:none;stroke-width:0;stroke-miterlimit:4;stroke-dasharray:none;stroke-opacity:1"
       id="path2394"
       sodipodi:cx="94.954338"
       sodipodi:cy="69.917351"
       sodipodi:rx="40.911179"
       sodipodi:ry="36.618031"
       d="M 135.86552,69.917351 A 40.911179,36.618031 0 1 1 54.043159,69.917351 A 40.911179,36.618031 0 1 1 135.86552,69.917351 z"
       transform="matrix(0.8481075,0,0,0.9239943,-12.974709,-190.86103)" />
    <path
       sodipodi:type="arc"
       style="opacity:1;fill:#ff6600;fill-opacity:1;fill-rule:nonzero;stroke:none;stroke-width:0;stroke-miterlimit:4;stroke-dasharray:none;stroke-opacity:1"
       id="path2396"
       sodipodi:cx="95.711952"
       sodipodi:cy="60.573441"
       sodipodi:rx="30.052038"
       sodipodi:ry="28.284271"
       d="M 125.76399,60.573441 A 30.052038,28.284271 0 1 1 65.659914,60.573441 A 30.052038,28.284271 0 1 1 125.76399,60.573441 z"
       transform="matrix(0.9584055,0,0,0.9893537,-29.824023,-183.1305)" />
    <path
       sodipodi:type="arc"
       style="opacity:1;fill:#ffffff;fill-opacity:1;fill-rule:nonzero;stroke:none;stroke-width:0;stroke-miterlimit:4;stroke-dasharray:none;stroke-opacity:1"
       id="path2398"
       sodipodi:cx="95.711952"
       sodipodi:cy="60.573441"
       sodipodi:rx="30.052038"
       sodipodi:ry="28.284271"
       d="M 125.76399,60.573441 A 30.052038,28.284271 0 1 1 65.659914,60.573441 A 30.052038,28.284271 0 1 1 125.76399,60.573441 z"
       transform="matrix(0.75655,0,0,0.7955403,-6.1040999,-176.15814)" />
    <path
       sodipodi:type="arc"
       style="opacity:1;fill:#ff6600;fill-opacity:1;fill-rule:nonzero;stroke:none;stroke-width:0;stroke-miterlimit:4;stroke-dasharray:none;stroke-opacity:1"
       id="path2400"
       sodipodi:cx="95.711952"
       sodipodi:cy="60.573441"
       sodipodi:rx="30.052038"
       sodipodi:ry="28.284271"
       d="M 125.76399,60.573441 A 30.052038,28.284271 0 1 1 65.659914,60.573441 A 30.052038,28.284271 0 1 1 125.76399,60.573441 z"
       transform="matrix(0.5525828,0,0,0.5566353,9.3699411,-154.74576)" />
    <path
       sodipodi:type="arc"
       style="opacity:1;fill:#ffffff;fill-opacity:1;fill-rule:nonzero;stroke:none;stroke-width:0;stroke-miterlimit:4;stroke-dasharray:none;stroke-opacity:1"
       id="path2402"
       sodipodi:cx="87.88327"
       sodipodi:cy="62.593742"
       sodipodi:rx="6.0609155"
       sodipodi:ry="6.0609155"
       d="M 93.944186,62.593742 A 6.0609155,6.0609155 0 1 1 81.822355,62.593742 A 6.0609155,6.0609155 0 1 1 93.944186,62.593742 z"
       transform="matrix(1.0883883,0,0,1.056398,-24.587286,-193.11348)" />
    <text
       xml:space="preserve"
       style="font-size:61.30767441px;font-style:normal;font-weight:bold;fill:#ffffff;fill-opacity:1;stroke:none;stroke-width:1px;stroke-linecap:butt;stroke-linejoin:miter;stroke-opacity:1;font-family:Bitstream Vera Sans"
       x="110.23386"
       y="50.322605"
       id="text2406"
       transform="scale(0.9998861,1.0001139)"><tspan
         sodipodi:role="line"
         x="110.23386"
         y="50.322605"
         id="tspan2410">s</tspan><tspan
         sodipodi:role="line"
         x="110.23386"
         y="126.95719"
         id="tspan2412" /></text>
    <text
       xml:space="preserve"
       style="font-size:57.35172653px;font-style:normal;font-weight:bold;fill:#ffffff;fill-opacity:1;stroke:none;stroke-width:1px;stroke-linecap:butt;stroke-linejoin:miter;stroke-opacity:1;font-family:Bitstream Vera Sans"
       x="105.8812"
       y="89.719704"
       id="text2416"
       transform="scale(0.9835597,1.0167151)"><tspan
         sodipodi:role="line"
         id="tspan2418"
         x="105.8812"
         y="89.719704">w</tspan></text>
  </g>
</svg>
