<?xml version="1.0" encoding="UTF-8" standalone="no"?>
<!-- Created with Inkscape (http://www.inkscape.org/) -->
<svg
   xmlns:dc="http://purl.org/dc/elements/1.1/"
   xmlns:cc="http://creativecommons.org/ns#"
   xmlns:rdf="http://www.w3.org/1999/02/22-rdf-syntax-ns#"
   xmlns:svg="http://www.w3.org/2000/svg"
   xmlns="http://www.w3.org/2000/svg"
   xmlns:sodipodi="http://sodipodi.sourceforge.net/DTD/sodipodi-0.dtd"
   xmlns:inkscape="http://www.inkscape.org/namespaces/inkscape"
   width="1024"
   height="700"
   id="svg2"
   sodipodi:version="0.32"
   inkscape:version="0.46"
   version="1.0"
   sodipodi:docname="softwebSito.svg"
   inkscape:output_extension="org.inkscape.output.svg.inkscape">
  <defs
     id="defs4">
    <inkscape:perspective
       sodipodi:type="inkscape:persp3d"
       inkscape:vp_x="0 : 526.18109 : 1"
       inkscape:vp_y="0 : 1000 : 0"
       inkscape:vp_z="744.09448 : 526.18109 : 1"
       inkscape:persp3d-origin="372.04724 : 350.78739 : 1"
       id="perspective10" />
    <filter
       inkscape:collect="always"
       id="filter3301"
       x="-0.096043351"
       width="1.1920867"
       y="-0.26440927"
       height="1.5288185">
      <feGaussianBlur
         inkscape:collect="always"
         stdDeviation="4.5969338"
         id="feGaussianBlur3303" />
    </filter>
    <filter
       inkscape:collect="always"
       id="filter3395"
       x="-0.11504402"
       width="1.230088"
       y="-0.26848663"
       height="1.5369733">
      <feGaussianBlur
         inkscape:collect="always"
         stdDeviation="4.3956265"
         id="feGaussianBlur3397" />
    </filter>
    <filter
       inkscape:collect="always"
       id="filter4146">
      <feGaussianBlur
         inkscape:collect="always"
         stdDeviation="1.7026228"
         id="feGaussianBlur4148" />
    </filter>
    <filter
       inkscape:collect="always"
       id="filter4313"
       x="-0.20294378"
       width="1.4058876"
       y="-0.21232845"
       height="1.4246569">
      <feGaussianBlur
         inkscape:collect="always"
         stdDeviation="4.3046279"
         id="feGaussianBlur4315" />
    </filter>
    <filter
       inkscape:collect="always"
       id="filter4317"
       x="-0.13740458"
       width="1.2748092"
       y="-0.13740458"
       height="1.2748092">
      <feGaussianBlur
         inkscape:collect="always"
         stdDeviation="4.3046279"
         id="feGaussianBlur4319" />
    </filter>
    <filter
       inkscape:collect="always"
       id="filter4321"
       x="-0.42221638"
       width="1.8444328"
       y="-0.42657472"
       height="1.8531494">
      <feGaussianBlur
         inkscape:collect="always"
         stdDeviation="4.3046279"
         id="feGaussianBlur4323" />
    </filter>
  </defs>
  <sodipodi:namedview
     id="base"
     pagecolor="#ffffff"
     bordercolor="#666666"
     borderopacity="1.0"
     inkscape:pageopacity="0.0"
     inkscape:pageshadow="2"
     inkscape:zoom="0.49497475"
     inkscape:cx="347.05403"
     inkscape:cy="420.23207"
     inkscape:document-units="px"
     inkscape:current-layer="layer1"
     showgrid="false"
     inkscape:window-width="1280"
     inkscape:window-height="738"
     inkscape:window-x="0"
     inkscape:window-y="24" />
  <metadata
     id="metadata7">
    <rdf:RDF>
      <cc:Work
         rdf:about="">
        <dc:format>image/svg+xml</dc:format>
        <dc:type
           rdf:resource="http://purl.org/dc/dcmitype/StillImage" />
      </cc:Work>
    </rdf:RDF>
  </metadata>
  <g
     inkscape:label="Livello 1"
     inkscape:groupmode="layer"
     id="layer1">
    <path
       style="opacity:1;fill:#3f3f3f;fill-opacity:0.62727272;fill-rule:nonzero;stroke:none;stroke-width:0;stroke-miterlimit:4;stroke-dasharray:none;stroke-opacity:1;filter:url(#filter4313)"
       d="M 192.01283,30.252893 C 177.9523,30.252893 166.54407,41.1349 166.54408,54.565393 C 166.54408,67.995886 177.9523,78.909146 192.01283,78.909146 C 205.63397,78.909146 216.7677,68.665056 217.45033,55.815396 C 215.61729,64.969406 207.47478,71.846646 197.76283,71.846646 C 186.7015,71.846646 177.73158,62.913396 177.73158,51.877893 C 177.73158,40.842397 186.7015,31.877893 197.76283,31.877893 C 199.53106,31.877893 201.25427,32.135743 202.88783,32.565393 C 199.58641,31.071229 195.90669,30.252893 192.01283,30.252893 z"
       id="path4151" />
    <path
       style="opacity:1;fill:#3f3f3f;fill-opacity:0.62727272;fill-rule:nonzero;stroke:none;stroke-width:8.97999954;stroke-miterlimit:4;stroke-dasharray:none;stroke-opacity:1;filter:url(#filter4317)"
       d="M 195.63783,16.500355 C 174.88561,16.500355 158.04409,33.341888 158.04408,54.094105 C 158.04408,74.846316 174.88561,91.687856 195.63783,91.687856 C 216.39005,91.687856 233.23158,74.846316 233.23158,54.094105 C 233.23158,33.34189 216.39004,16.500355 195.63783,16.500355 z M 198.91908,21.281605 C 216.03879,21.281604 229.91908,34.783994 229.91908,51.437855 C 229.91908,68.091716 216.03879,81.594106 198.91908,81.594106 C 181.79937,81.594106 167.88783,68.091716 167.88783,51.437855 C 167.88783,34.783995 181.79937,21.281605 198.91908,21.281605 z"
       id="path4153" />
    <path
       style="opacity:0.33720931;fill:#3f3f3f;fill-opacity:0.62727272;fill-rule:nonzero;stroke:none;stroke-width:0;stroke-miterlimit:4;stroke-dasharray:none;stroke-opacity:1;filter:url(#filter4321)"
       d="M 196.79408,42.469105 C 190.04179,42.469105 184.54407,47.878784 184.54408,54.562855 C 184.54408,61.246926 190.0418,66.687856 196.79408,66.687856 C 203.54637,66.687856 209.01284,61.246926 209.01283,54.562855 C 209.01283,50.677067 207.14027,47.247757 204.26283,45.031605 C 204.6479,45.711254 204.88783,46.483133 204.88783,47.312855 C 204.88783,49.94321 202.69428,52.062855 199.98158,52.062855 C 197.26888,52.062854 195.04408,49.943209 195.04408,47.312855 C 195.04407,45.055873 196.68266,43.148289 198.85658,42.656605 C 198.17907,42.541305 197.50467,42.469105 196.79408,42.469105 z"
       id="path4155" />
    <path
       style="opacity:1;fill:#00aad4;fill-opacity:1;fill-rule:nonzero;stroke:none;stroke-width:0;stroke-miterlimit:4;stroke-dasharray:none;stroke-opacity:1"
       d="M 188.61161,27.323967 C 174.55108,27.323967 163.14285,38.205974 163.14286,51.636467 C 163.14286,65.066961 174.55108,75.980218 188.61161,75.980217 C 202.23275,75.980217 213.36648,65.736134 214.04911,52.886467 C 212.21607,62.040479 204.07356,68.917717 194.36161,68.917717 C 183.30028,68.917717 174.33036,59.984465 174.33036,48.948967 C 174.33036,37.913471 183.30028,28.948967 194.36161,28.948967 C 196.12984,28.948967 197.85305,29.206817 199.48661,29.636467 C 196.18519,28.142303 192.50547,27.323967 188.61161,27.323967 z"
       id="path2384" />
    <path
       style="opacity:1;fill:#004455;fill-opacity:1;fill-rule:nonzero;stroke:none;stroke-width:8.97999954;stroke-miterlimit:4;stroke-dasharray:none;stroke-opacity:1"
       d="M 192.23661,13.571429 C 171.48439,13.571429 154.64287,30.412962 154.64286,51.165179 C 154.64286,71.917394 171.48439,88.758927 192.23661,88.758929 C 212.98883,88.758929 229.83036,71.917392 229.83036,51.165179 C 229.83036,30.412964 212.98882,13.571429 192.23661,13.571429 z M 195.51786,18.352679 C 212.63757,18.352678 226.51786,31.855068 226.51786,48.508929 C 226.51786,65.162792 212.63757,78.665179 195.51786,78.665179 C 178.39815,78.665182 164.48661,65.16279 164.48661,48.508929 C 164.48661,31.855069 178.39815,18.352679 195.51786,18.352679 z"
       id="path3201" />
    <rect
       style="opacity:1;fill:#00aad4;fill-opacity:1;fill-rule:nonzero;stroke:none;stroke-width:8.97999953999999970;stroke-miterlimit:4;stroke-dasharray:none;stroke-opacity:1"
       id="rect2407"
       width="2"
       height="700"
       x="889.07031"
       y="-0.37264135"
       rx="15.149948"
       ry="0" />
    <rect
       style="opacity:1;fill:#004455;fill-opacity:1;fill-rule:nonzero;stroke:none;stroke-width:8.97999954;stroke-miterlimit:4;stroke-dasharray:none;stroke-opacity:1"
       id="rect2429"
       width="981.26331"
       height="2"
       x="48.278114"
       y="108.12254"
       rx="490.63165"
       ry="0" />
    <path
       style="opacity:1;fill:#004455;fill-opacity:1;fill-rule:nonzero;stroke:none;stroke-width:0;stroke-miterlimit:4;stroke-dasharray:none;stroke-opacity:1"
       d="M 193.39286,39.540179 C 186.64057,39.540179 181.14285,44.949858 181.14286,51.633929 C 181.14286,58.317999 186.64058,63.758931 193.39286,63.758929 C 200.14515,63.758929 205.61162,58.317997 205.61161,51.633929 C 205.61161,47.748141 203.73905,44.318831 200.86161,42.102679 C 201.24668,42.782328 201.48661,43.554207 201.48661,44.383929 C 201.48661,47.014284 199.29306,49.133929 196.58036,49.133929 C 193.86766,49.133928 191.64286,47.014283 191.64286,44.383929 C 191.64285,42.126947 193.28144,40.219363 195.45536,39.727679 C 194.77785,39.612379 194.10345,39.540179 193.39286,39.540179 z"
       id="path2388" />
    <path
       sodipodi:type="arc"
       style="opacity:1;fill:#ff6600;fill-opacity:1;fill-rule:nonzero;stroke:none;stroke-width:8.97999954;stroke-miterlimit:4;stroke-dasharray:none;stroke-opacity:1"
       id="path2392"
       sodipodi:cx="87.85714"
       sodipodi:cy="56.42857"
       sodipodi:rx="49.285713"
       sodipodi:ry="45"
       d="M 137.14285,56.42857 A 49.285713,45 0 1 1 38.571426,56.42857 A 49.285713,45 0 1 1 137.14285,56.42857 z"
       transform="matrix(0.8550725,0,0,0.9325397,-11.909937,-174.94331)" />
    <path
       sodipodi:type="arc"
       style="opacity:1;fill:#ffffff;fill-opacity:1;fill-rule:nonzero;stroke:none;stroke-width:0;stroke-miterlimit:4;stroke-dasharray:none;stroke-opacity:1"
       id="path2394"
       sodipodi:cx="94.954338"
       sodipodi:cy="69.917351"
       sodipodi:rx="40.911179"
       sodipodi:ry="36.618031"
       d="M 135.86552,69.917351 A 40.911179,36.618031 0 1 1 54.043159,69.917351 A 40.911179,36.618031 0 1 1 135.86552,69.917351 z"
       transform="matrix(0.8481075,0,0,0.9239943,-12.974709,-190.86103)" />
    <path
       sodipodi:type="arc"
       style="opacity:1;fill:#ff6600;fill-opacity:1;fill-rule:nonzero;stroke:none;stroke-width:0;stroke-miterlimit:4;stroke-dasharray:none;stroke-opacity:1"
       id="path2396"
       sodipodi:cx="95.711952"
       sodipodi:cy="60.573441"
       sodipodi:rx="30.052038"
       sodipodi:ry="28.284271"
       d="M 125.76399,60.573441 A 30.052038,28.284271 0 1 1 65.659914,60.573441 A 30.052038,28.284271 0 1 1 125.76399,60.573441 z"
       transform="matrix(0.9584055,0,0,0.9893537,-29.824023,-183.1305)" />
    <path
       sodipodi:type="arc"
       style="opacity:1;fill:#ffffff;fill-opacity:1;fill-rule:nonzero;stroke:none;stroke-width:0;stroke-miterlimit:4;stroke-dasharray:none;stroke-opacity:1"
       id="path2398"
       sodipodi:cx="95.711952"
       sodipodi:cy="60.573441"
       sodipodi:rx="30.052038"
       sodipodi:ry="28.284271"
       d="M 125.76399,60.573441 A 30.052038,28.284271 0 1 1 65.659914,60.573441 A 30.052038,28.284271 0 1 1 125.76399,60.573441 z"
       transform="matrix(0.75655,0,0,0.7955403,-6.1040999,-176.15814)" />
    <path
       sodipodi:type="arc"
       style="opacity:1;fill:#ff6600;fill-opacity:1;fill-rule:nonzero;stroke:none;stroke-width:0;stroke-miterlimit:4;stroke-dasharray:none;stroke-opacity:1"
       id="path2400"
       sodipodi:cx="95.711952"
       sodipodi:cy="60.573441"
       sodipodi:rx="30.052038"
       sodipodi:ry="28.284271"
       d="M 125.76399,60.573441 A 30.052038,28.284271 0 1 1 65.659914,60.573441 A 30.052038,28.284271 0 1 1 125.76399,60.573441 z"
       transform="matrix(0.5525828,0,0,0.5566353,9.3699411,-154.74576)" />
    <path
       sodipodi:type="arc"
       style="opacity:1;fill:#ffffff;fill-opacity:1;fill-rule:nonzero;stroke:none;stroke-width:0;stroke-miterlimit:4;stroke-dasharray:none;stroke-opacity:1"
       id="path2402"
       sodipodi:cx="87.88327"
       sodipodi:cy="62.593742"
       sodipodi:rx="6.0609155"
       sodipodi:ry="6.0609155"
       d="M 93.944186,62.593742 A 6.0609155,6.0609155 0 1 1 81.822355,62.593742 A 6.0609155,6.0609155 0 1 1 93.944186,62.593742 z"
       transform="matrix(1.0883883,0,0,1.056398,-24.587286,-193.11348)" />
    <text
       xml:space="preserve"
       style="font-size:53.08112335px;font-style:normal;font-weight:bold;fill:#7f7f7f;fill-opacity:1;stroke:none;stroke-width:1px;stroke-linecap:butt;stroke-linejoin:miter;stroke-opacity:1;filter:url(#filter3395);font-family:Bitstream Vera Sans"
       x="287.2085"
       y="77.222008"
       id="text3305"
       transform="matrix(1.0118304,0,0,0.988308,-37.430015,-11.530097)"><tspan
         sodipodi:role="line"
         x="287.2085"
         y="77.222008"
         id="tspan3307">Soft</tspan><tspan
         sodipodi:role="line"
         x="287.2085"
         y="143.57341"
         id="tspan3309" /></text>
    <text
       xml:space="preserve"
       style="font-size:53.08112717px;font-style:normal;font-weight:bold;fill:#004455;fill-opacity:1;stroke:none;stroke-width:1px;stroke-linecap:butt;stroke-linejoin:miter;stroke-opacity:1;font-family:Bitstream Vera Sans"
       x="245.95085"
       y="62.946438"
       id="text2406"
       transform="scale(1.0118304,0.988308)"><tspan
         sodipodi:role="line"
         x="245.95085"
         y="62.946438"
         id="tspan2399">Soft</tspan><tspan
         sodipodi:role="line"
         x="245.95085"
         y="129.29785"
         id="tspan2412" /></text>
    <text
       xml:space="preserve"
       style="font-size:57.35172653px;font-style:normal;font-weight:bold;fill:#7f7f7f;fill-opacity:1;stroke:none;stroke-width:1px;stroke-linecap:butt;stroke-linejoin:miter;stroke-opacity:1;filter:url(#filter3301);font-family:Bitstream Vera Sans"
       x="405.05801"
       y="74.800591"
       id="text2453"
       transform="matrix(0.9835597,0,0,1.0167151,-48.541693,11.703412)"><tspan
         sodipodi:role="line"
         id="tspan2455"
         x="405.05801"
         y="74.800591">Web</tspan><tspan
         sodipodi:role="line"
         x="405.05801"
         y="146.49025"
         id="tspan2457" /></text>
    <text
       xml:space="preserve"
       style="font-size:57.35172653px;font-style:normal;font-weight:bold;fill:#000000;fill-opacity:1;stroke:none;stroke-width:1px;stroke-linecap:butt;stroke-linejoin:miter;stroke-opacity:1;font-family:Bitstream Vera Sans"
       x="349.94855"
       y="84.08474"
       id="text2416"
       transform="scale(0.9835597,1.0167151)"><tspan
         sodipodi:role="line"
         id="tspan2418"
         x="349.94855"
         y="84.08474">Web</tspan><tspan
         sodipodi:role="line"
         x="349.94855"
         y="155.77438"
         id="tspan2403" /></text>
    <text
       xml:space="preserve"
       style="font-size:20px;font-style:normal;font-variant:normal;font-weight:normal;font-stretch:normal;text-align:start;line-height:100%;writing-mode:lr-tb;text-anchor:start;fill:#1985ca;fill-opacity:0.44090911;stroke:none;stroke-width:1px;stroke-linecap:butt;stroke-linejoin:miter;stroke-opacity:1;filter:url(#filter4146);font-family:Segoe Print;-inkscape-font-specification:Segoe Print"
       x="486.52145"
       y="64.270454"
       id="text4100"
       sodipodi:linespacing="100%"
       transform="matrix(1,0,-4.5922425e-2,1,38.571429,-8.9285715)"><tspan
         sodipodi:role="line"
         id="tspan4102"
         x="486.52145"
         y="64.270454">software &amp; web </tspan><tspan
         sodipodi:role="line"
         x="486.52145"
         y="84.270454"
         id="tspan4104">       ... per la tua azineda ...</tspan></text>
    <text
       xml:space="preserve"
       style="font-size:26.02957726px;font-style:normal;font-weight:normal;text-align:start;line-height:75%;writing-mode:lr-tb;text-anchor:start;fill:#000000;fill-opacity:1;stroke:none;stroke-width:1px;stroke-linecap:butt;stroke-linejoin:miter;stroke-opacity:1;font-family:Bitstream Vera Sans"
       x="523.29297"
       y="54.096569"
       id="text3525"
       sodipodi:linespacing="100%"
       transform="matrix(1,0,-4.5922425e-2,1,0,0)"><tspan
         sodipodi:role="line"
         id="tspan3527"
         x="523.29297"
         y="54.096569"
         style="-inkscape-font-specification:Segoe Print;font-family:Segoe Print;font-weight:normal;font-style:normal;font-stretch:normal;font-variant:normal;font-size:20px;text-anchor:start;text-align:start;writing-mode:lr;line-height:100%">software &amp; web </tspan><tspan
         sodipodi:role="line"
         x="523.29297"
         y="73.618752"
         id="tspan3529"
         style="-inkscape-font-specification:Segoe Print;font-family:Segoe Print;font-weight:normal;font-style:normal;font-stretch:normal;font-variant:normal;font-size:20px;text-anchor:start;text-align:start;writing-mode:lr;line-height:100%">       ... per la tua azineda ...</tspan></text>
    <rect
       style="opacity:1;fill:#00aad4;fill-opacity:0.05429861;fill-rule:nonzero;stroke:#00aad4;stroke-width:2;stroke-miterlimit:4;stroke-dasharray:none;stroke-opacity:1"
       id="rect3239"
       width="154.55333"
       height="319.87891"
       x="23.08993"
       y="121.70254"
       rx="22.728441"
       ry="22.223354" />
    <text
       xml:space="preserve"
       style="font-size:19.69139862px;font-style:normal;font-weight:normal;fill:#004455;fill-opacity:1;stroke:none;stroke-width:1px;stroke-linecap:butt;stroke-linejoin:miter;stroke-opacity:1;font-family:Bitstream Vera Sans"
       x="52.179661"
       y="166.97791"
       id="text3533"><tspan
         sodipodi:role="line"
         id="tspan3535"
         x="52.179661"
         y="166.97791">chi siamo</tspan><tspan
         sodipodi:role="line"
         x="52.179661"
         y="191.59215"
         id="tspan3537" /></text>
    <text
       xml:space="preserve"
       style="font-size:19.69139862px;font-style:normal;font-weight:normal;fill:#004455;fill-opacity:1;stroke:none;stroke-width:1px;stroke-linecap:butt;stroke-linejoin:miter;stroke-opacity:1;font-family:Bitstream Vera Sans"
       x="53.390484"
       y="227.77516"
       id="text3539"><tspan
         sodipodi:role="line"
         id="tspan3541"
         x="53.390484"
         y="227.77516">contatti</tspan><tspan
         sodipodi:role="line"
         x="53.390484"
         y="227.77516"
         id="tspan3249" /><tspan
         sodipodi:role="line"
         x="53.390484"
         y="252.3894"
         id="tspan3543" /></text>
    <text
       xml:space="preserve"
       style="font-size:19.69139862px;font-style:normal;font-weight:normal;fill:#004455;fill-opacity:1;stroke:none;stroke-width:1px;stroke-linecap:butt;stroke-linejoin:miter;stroke-opacity:1;font-family:Bitstream Vera Sans"
       x="55.95092"
       y="198.34673"
       id="text3545"><tspan
         sodipodi:role="line"
         id="tspan3547"
         x="55.95092"
         y="198.34673">bluetooth</tspan><tspan
         sodipodi:role="line"
         x="55.95092"
         y="222.96097"
         id="tspan3549" /></text>
    <rect
       style="opacity:0.33720931;fill:#004455;fill-opacity:1;fill-rule:nonzero;stroke:none;stroke-width:1;stroke-miterlimit:4;stroke-dasharray:none;stroke-opacity:1"
       id="rect4331"
       width="125.21558"
       height="0.75761449"
       x="35.782997"
       y="173.46542"
       rx="62.061245"
       ry="0" />
    <rect
       style="opacity:0.33720931;fill:#004455;fill-opacity:1;fill-rule:nonzero;stroke:none;stroke-width:1;stroke-miterlimit:4;stroke-dasharray:none;stroke-opacity:1"
       id="rect4333"
       width="123.78701"
       height="0.75761449"
       x="35.963638"
       y="236.04976"
       rx="62.061245"
       ry="0" />
    <rect
       style="opacity:0.33720931;fill:#004455;fill-opacity:1;fill-rule:nonzero;stroke:none;stroke-width:1;stroke-miterlimit:4;stroke-dasharray:none;stroke-opacity:1"
       id="rect4335"
       width="120.28737"
       height="0.75761449"
       x="35.249355"
       y="205.33548"
       rx="62.061245"
       ry="0" />
    <path
       style="fill:#004455;fill-rule:evenodd;stroke:#004455;stroke-width:2;stroke-linecap:butt;stroke-linejoin:miter;stroke-opacity:1;fill-opacity:0;stroke-miterlimit:4;stroke-dasharray:none"
       d="M 22.223356,0.46936234 C 21.465742,97.696545 22.489458,90.685375 27.212842,100.27794 C 28.519726,102.93205 30.933101,104.69747 35.942146,107.41452 C 40.122902,109.68229 48.413355,109.16536 48.413355,109.16536"
       id="path2467"
       sodipodi:nodetypes="cssc" />
    <rect
       style="opacity:1;fill:#00a2d1;fill-opacity:0.05490196000000000;fill-rule:nonzero;stroke:#00aad4;stroke-width:0;stroke-miterlimit:4;stroke-dasharray:none;stroke-opacity:1"
       id="rect3241"
       width="132.83505"
       height="701.55096"
       x="891.45959"
       y="-0.5407902"
       rx="0" />
    <text
       xml:space="preserve"
       style="font-size:19.69139862px;font-style:normal;font-weight:normal;fill:#004455;fill-opacity:1;stroke:none;stroke-width:1px;stroke-linecap:butt;stroke-linejoin:miter;stroke-opacity:1;font-family:Bitstream Vera Sans"
       x="54.275749"
       y="255.79167"
       id="text3263"><tspan
         sodipodi:role="line"
         id="tspan3265"
         x="54.275749"
         y="255.79167">contatti</tspan><tspan
         sodipodi:role="line"
         x="54.275749"
         y="280.40591"
         id="tspan3267" /><tspan
         sodipodi:role="line"
         x="54.275749"
         y="305.02017"
         id="tspan3269" /></text>
    <rect
       style="opacity:0.33720931;fill:#004455;fill-opacity:1;fill-rule:nonzero;stroke:none;stroke-width:1;stroke-miterlimit:4;stroke-dasharray:none;stroke-opacity:1"
       id="rect3271"
       width="123.78701"
       height="0.75761449"
       x="36.848904"
       y="264.06628"
       rx="62.061245"
       ry="0" />
    <text
       xml:space="preserve"
       style="font-size:19.69139862px;font-style:normal;font-weight:normal;fill:#004455;fill-opacity:1;stroke:none;stroke-width:1px;stroke-linecap:butt;stroke-linejoin:miter;stroke-opacity:1;font-family:Bitstream Vera Sans"
       x="52.255447"
       y="283.82339"
       id="text3277"><tspan
         sodipodi:role="line"
         id="tspan3279"
         x="52.255447"
         y="283.82339">contatti</tspan><tspan
         sodipodi:role="line"
         x="52.255447"
         y="308.43765"
         id="tspan3281" /><tspan
         sodipodi:role="line"
         x="52.255447"
         y="333.05188"
         id="tspan3283" /></text>
    <rect
       style="opacity:0.33720931;fill:#004455;fill-opacity:1;fill-rule:nonzero;stroke:none;stroke-width:1;stroke-miterlimit:4;stroke-dasharray:none;stroke-opacity:1"
       id="rect3285"
       width="123.78701"
       height="0.75761449"
       x="37.859058"
       y="292.09802"
       rx="62.061245"
       ry="0" />
    <rect
       style="opacity:1;fill:#004455;fill-opacity:0;fill-rule:nonzero;stroke:#004455;stroke-width:2;stroke-miterlimit:4;stroke-dasharray:none;stroke-opacity:1"
       id="rect3289"
       width="154.55333"
       height="231.30751"
       x="23.73859"
       y="452.42239"
       rx="22.728441"
       ry="22.223356" />
    <text
       xml:space="preserve"
       style="font-size:26.53250694000000100px;font-style:normal;font-weight:normal;fill:#000000;fill-opacity:1;stroke:none;stroke-width:1px;stroke-linecap:butt;stroke-linejoin:miter;stroke-opacity:1;font-family:Bitstream Vera Sans"
       x="41.921513"
       y="501.8479"
       id="text3291"
       transform="scale(1.0498257,0.9525391)"><tspan
         sodipodi:role="line"
         id="tspan3293"
         x="41.921513"
         y="501.8479">adsense</tspan></text>
  </g>
</svg>
